<svg xmlns="http://www.w3.org/2000/svg" fill="none" viewBox="0 0 259.0204402515723 150.692" style="max-height: 500px" width="259.0204402515723" height="150.692">
<g filter="url(#filter0_ddi_0_1)">
<path fill="url(#paint0_diamond_0_1)" d="M76.919 145.828C74.9262 145.828 73.9298 145.828 73.0789 145.493C72.3586 145.21 71.717 144.757 71.2083 144.174C70.6074 143.485 70.2727 142.547 69.6034 140.67L55.465 101.022C55.1168 100.045 54.9426 99.5571 54.8753 99.0558C54.8179 98.6293 54.8179 98.1971 54.8753 97.7706C54.9426 97.2693 55.1168 96.781 55.465 95.8044L69.6033 56.158C70.2727 54.2811 70.6074 53.3426 71.2083 52.6535C71.717 52.0701 72.3586 51.6178 73.0789 51.3346C73.9298 51 74.9262 51 76.9189 51L179.581 51C181.553 51 182.54 51 183.384 51.329C184.099 51.6075 184.737 52.0525 185.246 52.6272C185.847 53.3059 186.187 54.2312 186.869 56.0818L201.476 95.7288C201.846 96.7332 202.031 97.2353 202.103 97.7518C202.164 98.1911 202.164 98.6366 202.103 99.0758C202.031 99.5923 201.846 100.094 201.476 101.099L186.869 140.746C186.187 142.596 185.847 143.522 185.246 144.2C184.737 144.775 184.099 145.22 183.384 145.499C182.54 145.828 181.553 145.828 179.581 145.828L76.919 145.828Z"/>
<path fill="url(#paint1_diamond_0_1)" d="M76.919 145.828C74.9262 145.828 73.9298 145.828 73.0789 145.493C72.3586 145.21 71.717 144.757 71.2083 144.174C70.6074 143.485 70.2727 142.547 69.6034 140.67L55.465 101.022C55.1168 100.045 54.9426 99.5571 54.8753 99.0558C54.8179 98.6293 54.8179 98.1971 54.8753 97.7706C54.9426 97.2693 55.1168 96.781 55.465 95.8044L69.6033 56.158C70.2727 54.2811 70.6074 53.3426 71.2083 52.6535C71.717 52.0701 72.3586 51.6178 73.0789 51.3346C73.9298 51 74.9262 51 76.9189 51L179.581 51C181.553 51 182.54 51 183.384 51.329C184.099 51.6075 184.737 52.0525 185.246 52.6272C185.847 53.3059 186.187 54.2312 186.869 56.0818L201.476 95.7288C201.846 96.7332 202.031 97.2353 202.103 97.7518C202.164 98.1911 202.164 98.6366 202.103 99.0758C202.031 99.5923 201.846 100.094 201.476 101.099L186.869 140.746C186.187 142.596 185.847 143.522 185.246 144.2C184.737 144.775 184.099 145.22 183.384 145.499C182.54 145.828 181.553 145.828 179.581 145.828L76.919 145.828Z"/>
<path fill="url(#paint2_linear_0_1)" d="M76.919 145.828C74.9262 145.828 73.9298 145.828 73.0789 145.493C72.3586 145.21 71.717 144.757 71.2083 144.174C70.6074 143.485 70.2727 142.547 69.6034 140.67L55.465 101.022C55.1168 100.045 54.9426 99.5571 54.8753 99.0558C54.8179 98.6293 54.8179 98.1971 54.8753 97.7706C54.9426 97.2693 55.1168 96.781 55.465 95.8044L69.6033 56.158C70.2727 54.2811 70.6074 53.3426 71.2083 52.6535C71.717 52.0701 72.3586 51.6178 73.0789 51.3346C73.9298 51 74.9262 51 76.9189 51L179.581 51C181.553 51 182.54 51 183.384 51.329C184.099 51.6075 184.737 52.0525 185.246 52.6272C185.847 53.3059 186.187 54.2312 186.869 56.0818L201.476 95.7288C201.846 96.7332 202.031 97.2353 202.103 97.7518C202.164 98.1911 202.164 98.6366 202.103 99.0758C202.031 99.5923 201.846 100.094 201.476 101.099L186.869 140.746C186.187 142.596 185.847 143.522 185.246 144.2C184.737 144.775 184.099 145.22 183.384 145.499C182.54 145.828 181.553 145.828 179.581 145.828L76.919 145.828Z"/>
</g>
<g filter="url(#filter1_i_0_1)">
<path fill="#E3F0FF" d="M84.0086 138.646C82.0465 138.646 81.0654 138.646 80.224 138.319C79.5116 138.043 78.875 137.602 78.3666 137.031C77.7661 136.358 77.4223 135.439 76.7345 133.601L64.5839 101.136C64.2029 100.118 64.0124 99.6091 63.9387 99.0852C63.8761 98.6397 63.8761 98.1876 63.9387 97.742C64.0124 97.2181 64.2029 96.7091 64.5839 95.6912L76.7345 63.2261C77.4223 61.3885 77.7661 60.4697 78.3666 59.796C78.875 59.2256 79.5116 58.7841 80.224 58.5079C81.0654 58.1817 82.0465 58.1817 84.0086 58.1817L174.587 58.1817C176.6 58.1817 177.607 58.1817 178.464 58.5218C179.189 58.8097 179.834 59.2693 180.343 59.8613C180.944 60.5606 181.272 61.5121 181.929 63.4152L193.131 95.8803C193.458 96.8294 193.622 97.3039 193.685 97.7903C193.739 98.2041 193.739 98.6232 193.685 99.037C193.622 99.5234 193.458 99.9979 193.131 100.947L181.929 133.412C181.272 135.315 180.944 136.267 180.343 136.966C179.834 137.558 179.189 138.018 178.464 138.305C177.607 138.646 176.6 138.646 174.587 138.646L84.0086 138.646Z"/>
</g>
<g filter="url(#filter2_ddi_0_1)">
<path fill="url(#paint3_diamond_0_1)" d="M76.919 145.828C74.9262 145.828 73.9298 145.828 73.0789 145.493C72.3586 145.21 71.717 144.757 71.2083 144.174C70.6074 143.485 70.2727 142.547 69.6034 140.67L55.465 101.022C55.1168 100.045 54.9426 99.5571 54.8753 99.0558C54.8179 98.6293 54.8179 98.1971 54.8753 97.7706C54.9426 97.2693 55.1168 96.781 55.465 95.8044L69.6033 56.158C70.2727 54.2811 70.6074 53.3426 71.2083 52.6535C71.717 52.0701 72.3586 51.6178 73.0789 51.3346C73.9298 51 74.9262 51 76.9189 51L179.581 51C181.553 51 182.54 51 183.384 51.329C184.099 51.6075 184.737 52.0525 185.246 52.6272C185.847 53.3059 186.187 54.2312 186.869 56.0818L201.476 95.7288C201.846 96.7332 202.031 97.2353 202.103 97.7518C202.164 98.1911 202.164 98.6366 202.103 99.0758C202.031 99.5923 201.846 100.094 201.476 101.099L186.869 140.746C186.187 142.596 185.847 143.522 185.246 144.2C184.737 144.775 184.099 145.22 183.384 145.499C182.54 145.828 181.553 145.828 179.581 145.828L76.919 145.828Z"/>
<path fill="url(#paint4_diamond_0_1)" d="M76.919 145.828C74.9262 145.828 73.9298 145.828 73.0789 145.493C72.3586 145.21 71.717 144.757 71.2083 144.174C70.6074 143.485 70.2727 142.547 69.6034 140.67L55.465 101.022C55.1168 100.045 54.9426 99.5571 54.8753 99.0558C54.8179 98.6293 54.8179 98.1971 54.8753 97.7706C54.9426 97.2693 55.1168 96.781 55.465 95.8044L69.6033 56.158C70.2727 54.2811 70.6074 53.3426 71.2083 52.6535C71.717 52.0701 72.3586 51.6178 73.0789 51.3346C73.9298 51 74.9262 51 76.9189 51L179.581 51C181.553 51 182.54 51 183.384 51.329C184.099 51.6075 184.737 52.0525 185.246 52.6272C185.847 53.3059 186.187 54.2312 186.869 56.0818L201.476 95.7288C201.846 96.7332 202.031 97.2353 202.103 97.7518C202.164 98.1911 202.164 98.6366 202.103 99.0758C202.031 99.5923 201.846 100.094 201.476 101.099L186.869 140.746C186.187 142.596 185.847 143.522 185.246 144.2C184.737 144.775 184.099 145.22 183.384 145.499C182.54 145.828 181.553 145.828 179.581 145.828L76.919 145.828Z"/>
<path fill="url(#paint5_linear_0_1)" d="M76.919 145.828C74.9262 145.828 73.9298 145.828 73.0789 145.493C72.3586 145.21 71.717 144.757 71.2083 144.174C70.6074 143.485 70.2727 142.547 69.6034 140.67L55.465 101.022C55.1168 100.045 54.9426 99.5571 54.8753 99.0558C54.8179 98.6293 54.8179 98.1971 54.8753 97.7706C54.9426 97.2693 55.1168 96.781 55.465 95.8044L69.6033 56.158C70.2727 54.2811 70.6074 53.3426 71.2083 52.6535C71.717 52.0701 72.3586 51.6178 73.0789 51.3346C73.9298 51 74.9262 51 76.9189 51L179.581 51C181.553 51 182.54 51 183.384 51.329C184.099 51.6075 184.737 52.0525 185.246 52.6272C185.847 53.3059 186.187 54.2312 186.869 56.0818L201.476 95.7288C201.846 96.7332 202.031 97.2353 202.103 97.7518C202.164 98.1911 202.164 98.6366 202.103 99.0758C202.031 99.5923 201.846 100.094 201.476 101.099L186.869 140.746C186.187 142.596 185.847 143.522 185.246 144.2C184.737 144.775 184.099 145.22 183.384 145.499C182.54 145.828 181.553 145.828 179.581 145.828L76.919 145.828Z"/>
</g>
<g filter="url(#filter3_i_0_1)">
<path fill="#E3F0FF" d="M84.0086 138.646C82.0465 138.646 81.0654 138.646 80.224 138.319C79.5116 138.043 78.875 137.602 78.3666 137.031C77.7661 136.358 77.4223 135.439 76.7345 133.601L64.5839 101.136C64.2029 100.118 64.0124 99.6091 63.9387 99.0852C63.8761 98.6397 63.8761 98.1876 63.9387 97.742C64.0124 97.2181 64.2029 96.7091 64.5839 95.6912L76.7345 63.2261C77.4223 61.3885 77.7661 60.4697 78.3666 59.796C78.875 59.2256 79.5116 58.7841 80.224 58.5079C81.0654 58.1817 82.0465 58.1817 84.0086 58.1817L174.587 58.1817C176.6 58.1817 177.607 58.1817 178.464 58.5218C179.189 58.8097 179.834 59.2693 180.343 59.8613C180.944 60.5606 181.272 61.5121 181.929 63.4152L193.131 95.8803C193.458 96.8294 193.622 97.3039 193.685 97.7903C193.739 98.2041 193.739 98.6232 193.685 99.037C193.622 99.5234 193.458 99.9979 193.131 100.947L181.929 133.412C181.272 135.315 180.944 136.267 180.343 136.966C179.834 137.558 179.189 138.018 178.464 138.305C177.607 138.646 176.6 138.646 174.587 138.646L84.0086 138.646Z"/>
</g>
<g filter="url(#filter4_dd_0_1)">
<path fill="url(#paint6_diamond_0_1)" d="M95.8574 129.343C94.538 129.343 93.8784 129.343 93.302 129.133C92.8136 128.956 92.371 128.672 92.0067 128.301C91.5766 127.864 91.3024 127.264 90.7538 126.064L79.605 101.679C79.2085 100.812 79.0102 100.378 78.9339 99.9261C78.8691 99.542 78.8691 99.1497 78.9339 98.7657C79.0102 98.3136 79.2085 97.8799 79.605 97.0125L90.7538 72.6274C91.3024 71.4275 91.5766 70.8276 92.0066 70.3904C92.371 70.02 92.8136 69.7357 93.302 69.5584C93.8784 69.3491 94.538 69.3491 95.8573 69.3491L164.048 69.3491C165.414 69.3491 166.097 69.3491 166.689 69.5709C167.19 69.7587 167.641 70.0595 168.007 70.4498C168.439 70.9106 168.702 71.5411 169.228 72.8021L179.39 97.1872C179.725 97.992 179.893 98.3944 179.958 98.8112C180.013 99.1655 180.013 99.5262 179.958 99.8805C179.893 100.297 179.725 100.7 179.39 101.505L169.228 125.89C168.702 127.151 168.439 127.781 168.007 128.242C167.641 128.632 167.19 128.933 166.689 129.121C166.097 129.343 165.414 129.343 164.048 129.343L95.8574 129.343Z"/>
<path fill="url(#paint7_linear_0_1)" d="M95.8574 129.343C94.538 129.343 93.8784 129.343 93.302 129.133C92.8136 128.956 92.371 128.672 92.0067 128.301C91.5766 127.864 91.3024 127.264 90.7538 126.064L79.605 101.679C79.2085 100.812 79.0102 100.378 78.9339 99.9261C78.8691 99.542 78.8691 99.1497 78.9339 98.7657C79.0102 98.3136 79.2085 97.8799 79.605 97.0125L90.7538 72.6274C91.3024 71.4275 91.5766 70.8276 92.0066 70.3904C92.371 70.02 92.8136 69.7357 93.302 69.5584C93.8784 69.3491 94.538 69.3491 95.8573 69.3491L164.048 69.3491C165.414 69.3491 166.097 69.3491 166.689 69.5709C167.19 69.7587 167.641 70.0595 168.007 70.4498C168.439 70.9106 168.702 71.5411 169.228 72.8021L179.39 97.1872C179.725 97.992 179.893 98.3944 179.958 98.8112C180.013 99.1655 180.013 99.5262 179.958 99.8805C179.893 100.297 179.725 100.7 179.39 101.505L169.228 125.89C168.702 127.151 168.439 127.781 168.007 128.242C167.641 128.632 167.19 128.933 166.689 129.121C166.097 129.343 165.414 129.343 164.048 129.343L95.8574 129.343Z"/>
</g>
<path fill="white" d="M113.818 98.7852C117.626 97.65 126.173 94.0013 128.922 83.6632C129.055 83.1626 129.803 83.142 129.963 83.6355C131.232 87.5447 135.03 95.683 145.205 98.7421C145.707 98.893 145.714 99.5585 145.213 99.7121C141.498 100.851 133.391 104.488 130.103 115.057C129.951 115.547 129.208 115.541 129.064 115.048C127.939 111.194 124.368 103.061 113.812 99.754C113.314 99.5981 113.317 98.9343 113.818 98.7852Z"/>
<g filter="url(#filter5_f_0_1)">
<path fill-opacity="0.9" fill="white" d="M113.818 98.7852C117.626 97.65 126.173 94.0013 128.922 83.6632C129.055 83.1626 129.803 83.142 129.963 83.6355C131.232 87.5447 135.03 95.683 145.205 98.7421C145.707 98.893 145.714 99.5585 145.213 99.7121C141.498 100.851 133.391 104.488 130.103 115.057C129.951 115.547 129.208 115.541 129.064 115.048C127.939 111.194 124.368 103.061 113.812 99.754C113.314 99.5981 113.317 98.9343 113.818 98.7852Z"/>
</g>
<path stroke-linejoin="round" stroke-linecap="round" stroke-width="1.5" stroke="url(#paint8_linear_0_1)" d="M97 26.1818L98.875 28L103 24"/>
<rect fill="#266AE3" transform="rotate(-19.6279 173.25 11.4135)" height="9.83831" width="9.83831" y="11.4135" x="173.25"/>
<rect fill="#266AE3" transform="rotate(-71.881 7 102.459)" height="9.83831" width="9.83831" y="102.459" x="7"/>
<path fill="#266AE3" d="M215.066 80.4276C213.348 78.5257 214.28 75.4787 216.767 74.8623C219.325 74.2287 221.597 76.6259 220.826 79.1457C220.056 81.6654 216.833 82.3829 215.066 80.4276Z"/>
<path fill="#266AE3" d="M42.4713 19.2823C43.3848 17.6989 45.6571 17.662 46.6216 19.2149C47.6131 20.8114 46.485 22.8794 44.6059 22.9099C42.7268 22.9404 41.5321 20.9102 42.4713 19.2823Z"/>
<circle stroke-width="2" stroke="#37A3C9" r="3.32886" cy="96.3771" cx="239.477"/>
<circle stroke-width="2" stroke="#37A3C9" r="2.93532" cy="36.9537" cx="78.1306"/>
<path stroke-linejoin="round" stroke-linecap="round" stroke-width="1.5" stroke="#37A3C9" d="M32.2858 49.1534L25.9893 54.4661M36.2212 63.5173L28.744 61.5497M22.054 68.83L25.9893 76.3072M13.9866 68.83L10.6415 76.3072M9.26418 61.5497L1 63.5173M11.4286 54.4661L4.93532 49.1534M18.5122 50.5308V42.0698"/>
<path stroke-linejoin="round" stroke-linecap="round" stroke-width="1.5" stroke="#37A3C9" d="M251.481 10.0836L245.185 15.3963M255.416 24.4475L247.939 22.4799M241.249 29.7602L245.185 37.2373M233.182 29.7602L229.837 37.2373M228.459 22.4799L220.195 24.4475M230.624 15.3963L224.131 10.0836M237.708 11.4609V3"/>
<defs>
<filter color-interpolation-filters="sRGB" filterUnits="userSpaceOnUse" height="200.52" width="253.008" y="0.814397" x="1.98631" id="filter0_ddi_0_1">
<feFlood result="BackgroundImageFix" flood-opacity="0"/>
<feColorMatrix result="hardAlpha" values="0 0 0 0 0 0 0 0 0 0 0 0 0 0 0 0 0 0 127 0" type="matrix" in="SourceAlpha"/>
<feOffset dy="2.66037"/>
<feGaussianBlur stdDeviation="22.1928"/>
<feComposite operator="out" in2="hardAlpha"/>
<feColorMatrix values="0 0 0 0 0.843137 0 0 0 0 0.886275 0 0 0 0 0.92549 0 0 0 0.34 0" type="matrix"/>
<feBlend result="effect1_dropShadow_0_1" in2="BackgroundImageFix" mode="normal"/>
<feColorMatrix result="hardAlpha" values="0 0 0 0 0 0 0 0 0 0 0 0 0 0 0 0 0 0 127 0" type="matrix" in="SourceAlpha"/>
<feOffset dy="2.66037"/>
<feGaussianBlur stdDeviation="26.423"/>
<feComposite operator="out" in2="hardAlpha"/>
<feColorMatrix values="0 0 0 0 1 0 0 0 0 1 0 0 0 0 1 0 0 0 0.25 0" type="matrix"/>
<feBlend result="effect2_dropShadow_0_1" in2="effect1_dropShadow_0_1" mode="normal"/>
<feBlend result="shape" in2="effect2_dropShadow_0_1" in="SourceGraphic" mode="normal"/>
<feColorMatrix result="hardAlpha" values="0 0 0 0 0 0 0 0 0 0 0 0 0 0 0 0 0 0 127 0" type="matrix" in="SourceAlpha"/>
<feOffset/>
<feGaussianBlur stdDeviation="9.73043"/>
<feComposite k3="1" k2="-1" operator="arithmetic" in2="hardAlpha"/>
<feColorMatrix values="0 0 0 0 1 0 0 0 0 1 0 0 0 0 1 0 0 0 1 0" type="matrix"/>
<feBlend result="effect3_innerShadow_0_1" in2="shape" mode="normal"/>
</filter>
<filter color-interpolation-filters="sRGB" filterUnits="userSpaceOnUse" height="83.3584" width="129.834" y="58.1817" x="63.8917" id="filter1_i_0_1">
<feFlood result="BackgroundImageFix" flood-opacity="0"/>
<feBlend result="shape" in2="BackgroundImageFix" in="SourceGraphic" mode="normal"/>
<feColorMatrix result="hardAlpha" values="0 0 0 0 0 0 0 0 0 0 0 0 0 0 0 0 0 0 127 0" type="matrix" in="SourceAlpha"/>
<feOffset dy="2.89448"/>
<feGaussianBlur stdDeviation="1.44724"/>
<feComposite k3="1" k2="-1" operator="arithmetic" in2="hardAlpha"/>
<feColorMatrix values="0 0 0 0 0 0 0 0 0 0 0 0 0 0 0 0 0 0 0.25 0" type="matrix"/>
<feBlend result="effect1_innerShadow_0_1" in2="shape" mode="normal"/>
</filter>
<filter color-interpolation-filters="sRGB" filterUnits="userSpaceOnUse" height="200.52" width="253.008" y="0.814397" x="1.98631" id="filter2_ddi_0_1">
<feFlood result="BackgroundImageFix" flood-opacity="0"/>
<feColorMatrix result="hardAlpha" values="0 0 0 0 0 0 0 0 0 0 0 0 0 0 0 0 0 0 127 0" type="matrix" in="SourceAlpha"/>
<feOffset dy="2.66037"/>
<feGaussianBlur stdDeviation="22.1928"/>
<feComposite operator="out" in2="hardAlpha"/>
<feColorMatrix values="0 0 0 0 0.843137 0 0 0 0 0.886275 0 0 0 0 0.92549 0 0 0 0.34 0" type="matrix"/>
<feBlend result="effect1_dropShadow_0_1" in2="BackgroundImageFix" mode="normal"/>
<feColorMatrix result="hardAlpha" values="0 0 0 0 0 0 0 0 0 0 0 0 0 0 0 0 0 0 127 0" type="matrix" in="SourceAlpha"/>
<feOffset dy="2.66037"/>
<feGaussianBlur stdDeviation="26.423"/>
<feComposite operator="out" in2="hardAlpha"/>
<feColorMatrix values="0 0 0 0 1 0 0 0 0 1 0 0 0 0 1 0 0 0 0.25 0" type="matrix"/>
<feBlend result="effect2_dropShadow_0_1" in2="effect1_dropShadow_0_1" mode="normal"/>
<feBlend result="shape" in2="effect2_dropShadow_0_1" in="SourceGraphic" mode="normal"/>
<feColorMatrix result="hardAlpha" values="0 0 0 0 0 0 0 0 0 0 0 0 0 0 0 0 0 0 127 0" type="matrix" in="SourceAlpha"/>
<feOffset/>
<feGaussianBlur stdDeviation="9.73043"/>
<feComposite k3="1" k2="-1" operator="arithmetic" in2="hardAlpha"/>
<feColorMatrix values="0 0 0 0 1 0 0 0 0 1 0 0 0 0 1 0 0 0 1 0" type="matrix"/>
<feBlend result="effect3_innerShadow_0_1" in2="shape" mode="normal"/>
</filter>
<filter color-interpolation-filters="sRGB" filterUnits="userSpaceOnUse" height="83.3584" width="129.834" y="58.1817" x="63.8917" id="filter3_i_0_1">
<feFlood result="BackgroundImageFix" flood-opacity="0"/>
<feBlend result="shape" in2="BackgroundImageFix" in="SourceGraphic" mode="normal"/>
<feColorMatrix result="hardAlpha" values="0 0 0 0 0 0 0 0 0 0 0 0 0 0 0 0 0 0 127 0" type="matrix" in="SourceAlpha"/>
<feOffset dy="2.89448"/>
<feGaussianBlur stdDeviation="1.44724"/>
<feComposite k3="1" k2="-1" operator="arithmetic" in2="hardAlpha"/>
<feColorMatrix values="0 0 0 0 0 0 0 0 0 0 0 0 0 0 0 0 0 0 0.25 0" type="matrix"/>
<feBlend result="effect1_innerShadow_0_1" in2="shape" mode="normal"/>
</filter>
<filter color-interpolation-filters="sRGB" filterUnits="userSpaceOnUse" height="169.085" width="210.205" y="17.5494" x="24.3396" id="filter4_dd_0_1">
<feFlood result="BackgroundImageFix" flood-opacity="0"/>
<feColorMatrix result="hardAlpha" values="0 0 0 0 0 0 0 0 0 0 0 0 0 0 0 0 0 0 127 0" type="matrix" in="SourceAlpha"/>
<feOffset dy="2.74593"/>
<feGaussianBlur stdDeviation="22.9066"/>
<feComposite operator="out" in2="hardAlpha"/>
<feColorMatrix values="0 0 0 0 0.827451 0 0 0 0 0.87451 0 0 0 0 0.913725 0 0 0 0.39 0" type="matrix"/>
<feBlend result="effect1_dropShadow_0_1" in2="BackgroundImageFix" mode="normal"/>
<feColorMatrix result="hardAlpha" values="0 0 0 0 0 0 0 0 0 0 0 0 0 0 0 0 0 0 127 0" type="matrix" in="SourceAlpha"/>
<feOffset dy="2.74593"/>
<feGaussianBlur stdDeviation="27.2728"/>
<feComposite operator="out" in2="hardAlpha"/>
<feColorMatrix values="0 0 0 0 1 0 0 0 0 1 0 0 0 0 1 0 0 0 0.25 0" type="matrix"/>
<feBlend result="effect2_dropShadow_0_1" in2="effect1_dropShadow_0_1" mode="normal"/>
<feBlend result="shape" in2="effect2_dropShadow_0_1" in="SourceGraphic" mode="normal"/>
</filter>
<filter color-interpolation-filters="sRGB" filterUnits="userSpaceOnUse" height="38.5307" width="38.5308" y="80.0835" x="110.248" id="filter5_f_0_1">
<feFlood result="BackgroundImageFix" flood-opacity="0"/>
<feBlend result="shape" in2="BackgroundImageFix" in="SourceGraphic" mode="normal"/>
<feGaussianBlur result="effect1_foregroundBlur_0_1" stdDeviation="1.59643"/>
</filter>
<radialGradient gradientTransform="translate(140.983 161.237) rotate(-107.47) scale(155.791 155.791)" gradientUnits="userSpaceOnUse" r="1" cy="0" cx="0" id="paint0_diamond_0_1">
<stop stop-color="#A349EF" offset="0.421875"/>
<stop stop-color="#FF65E6" offset="1"/>
</radialGradient>
<radialGradient gradientTransform="translate(93.3717 116.49) rotate(-116.259) scale(74.3479 39.3607)" gradientUnits="userSpaceOnUse" r="1" cy="0" cx="0" id="paint1_diamond_0_1">
<stop stop-color="#FF9FEA"/>
<stop stop-opacity="0" stop-color="white" offset="1"/>
</radialGradient>
<linearGradient gradientUnits="userSpaceOnUse" y2="145.309" x2="154.989" y1="54.5941" x1="122.701" id="paint2_linear_0_1">
<stop stop-color="#7A96AC"/>
<stop stop-color="#EAEFF3" offset="0.18"/>
<stop stop-color="#C2D4E1" offset="0.315"/>
<stop stop-color="white" offset="0.491919"/>
<stop stop-color="#D4DEE5" offset="0.615"/>
<stop stop-color="#ABBDC8" offset="0.785"/>
<stop stop-color="#BCCAD7" offset="0.955"/>
</linearGradient>
<radialGradient gradientTransform="translate(140.983 161.237) rotate(-107.47) scale(155.791 155.791)" gradientUnits="userSpaceOnUse" r="1" cy="0" cx="0" id="paint3_diamond_0_1">
<stop stop-color="#A349EF" offset="0.421875"/>
<stop stop-color="#FF65E6" offset="1"/>
</radialGradient>
<radialGradient gradientTransform="translate(93.3717 116.49) rotate(-116.259) scale(74.3479 39.3607)" gradientUnits="userSpaceOnUse" r="1" cy="0" cx="0" id="paint4_diamond_0_1">
<stop stop-color="#FF9FEA"/>
<stop stop-opacity="0" stop-color="white" offset="1"/>
</radialGradient>
<linearGradient gradientUnits="userSpaceOnUse" y2="145.309" x2="154.989" y1="54.5941" x1="122.701" id="paint5_linear_0_1">
<stop stop-color="#7A96AC"/>
<stop stop-color="#EAEFF3" offset="0.18"/>
<stop stop-color="#C2D4E1" offset="0.315"/>
<stop stop-color="white" offset="0.491919"/>
<stop stop-color="#D4DEE5" offset="0.615"/>
<stop stop-color="#ABBDC8" offset="0.785"/>
<stop stop-color="#BCCAD7" offset="0.955"/>
</linearGradient>
<radialGradient gradientTransform="translate(136.248 139.092) rotate(-107.47) scale(98.5625 98.5624)" gradientUnits="userSpaceOnUse" r="1" cy="0" cx="0" id="paint6_diamond_0_1">
<stop stop-color="#A349EF" offset="0.421875"/>
<stop stop-color="#FF65E6" offset="1"/>
</radialGradient>
<linearGradient gradientUnits="userSpaceOnUse" y2="129.343" x2="129.414" y1="69.3491" x1="129.414" id="paint7_linear_0_1">
<stop stop-color="#38A3CA"/>
<stop stop-color="#39A6C9" offset="0.09"/>
<stop stop-color="#4193D9" offset="0.205"/>
<stop stop-color="#4191D8" offset="0.35"/>
<stop stop-color="#4391DB" offset="0.635"/>
<stop stop-color="#39A5CA" offset="0.73"/>
<stop stop-color="#3F93D8" offset="0.9"/>
<stop stop-color="#38A0CC" offset="1"/>
</linearGradient>
<linearGradient gradientUnits="userSpaceOnUse" y2="23.2295" x2="103.288" y1="22.8863" x1="95.7648" id="paint8_linear_0_1">
<stop stop-color="#40BEBE"/>
<stop stop-color="#2361E6" offset="1"/>
</linearGradient>
</defs>
</svg>