<svg width="376" height="204" viewBox="0 0 376 204" fill="none" xmlns="http://www.w3.org/2000/svg">
    <g clip-path="url(#clip0_1399_39079)">
        <mask id="mask0_1399_39079" style="mask-type:luminance" maskUnits="userSpaceOnUse" x="0" y="20" width="283" height="183">
            <path d="M261.993 20.2539H21.1461C9.7436 20.2539 0.5 29.5102 0.5 40.9285V182.223C0.5 193.641 9.7436 202.898 21.1461 202.898H261.993C273.395 202.898 282.639 193.641 282.639 182.223V40.9285C282.639 29.5102 273.395 20.2539 261.993 20.2539Z" fill="white"/>
        </mask>
        <g mask="url(#mask0_1399_39079)">
            <path d="M261.993 20.2539H21.1461C9.7436 20.2539 0.5 29.5102 0.5 40.9285V182.223C0.5 193.641 9.7436 202.898 21.1461 202.898H261.993C273.395 202.898 282.639 193.641 282.639 182.223V40.9285C282.639 29.5102 273.395 20.2539 261.993 20.2539Z" fill="url(#paint0_linear_1399_39079)"/>
            <path d="M21.96 49.7183V42.2754H23.2039V49.7183H21.96ZM28.6056 49.7183V47.0305C28.6056 46.8549 28.5936 46.6601 28.5696 46.4465C28.5454 46.2329 28.4887 46.0278 28.3992 45.8315C28.3132 45.6315 28.1824 45.4679 28.0069 45.3405C27.8349 45.2129 27.6009 45.1492 27.3049 45.1492C27.1466 45.1492 26.9902 45.1751 26.8352 45.2268C26.6804 45.2783 26.5394 45.368 26.4121 45.4955C26.2882 45.6196 26.1884 45.7919 26.1126 46.0124C26.037 46.2294 25.9991 46.5085 25.9991 46.8497L25.261 46.5343C25.261 46.0589 25.3522 45.6281 25.5345 45.2422C25.7203 44.8563 25.9922 44.5497 26.3501 44.3222C26.7079 44.0914 27.1485 43.9759 27.6714 43.9759C28.0844 43.9759 28.425 44.0449 28.6935 44.1826C28.9618 44.3205 29.1751 44.4963 29.3334 44.7099C29.4918 44.9235 29.6088 45.1509 29.6844 45.392C29.7601 45.6333 29.8084 45.8624 29.829 46.0795C29.853 46.2932 29.8651 46.4671 29.8651 46.6015V49.7183H28.6056ZM24.7396 49.7183V44.1361H25.8495V45.8676H25.9991V49.7183H24.7396ZM33.8908 49.8733C33.3471 49.8733 32.8913 49.7441 32.523 49.4857C32.1549 49.2272 31.8779 48.8758 31.6921 48.4313C31.5062 47.9834 31.4133 47.4819 31.4133 46.9272C31.4133 46.3655 31.5062 45.8624 31.6921 45.4179C31.8779 44.9734 32.1497 44.6237 32.5076 44.3687C32.8688 44.1102 33.3144 43.9811 33.8443 43.9811C34.3709 43.9811 34.8267 44.1102 35.2121 44.3687C35.601 44.6237 35.902 44.9734 36.1155 45.4179C36.3288 45.859 36.4355 46.362 36.4355 46.9272C36.4355 47.4854 36.3305 47.9867 36.1206 48.4313C35.9107 48.8758 35.6148 49.2272 35.2329 49.4857C34.8509 49.7441 34.4036 49.8733 33.8908 49.8733ZM31.2017 49.7183V42.2754H32.4559V45.8004H32.3011V49.7183H31.2017ZM33.6998 48.7569C34.0233 48.7569 34.2899 48.6759 34.4999 48.5139C34.7098 48.352 34.8646 48.1332 34.9644 47.8576C35.0677 47.5785 35.1192 47.2683 35.1192 46.9272C35.1192 46.5895 35.0677 46.2829 34.9644 46.0072C34.8613 45.7281 34.7011 45.5076 34.4844 45.3455C34.2676 45.1802 33.9924 45.0975 33.6585 45.0975C33.3419 45.0975 33.084 45.1751 32.8843 45.3301C32.6847 45.4817 32.5368 45.6953 32.4405 45.971C32.3476 46.2433 32.3011 46.562 32.3011 46.9272C32.3011 47.289 32.3476 47.6077 32.4405 47.8833C32.5368 48.159 32.6865 48.3743 32.8895 48.5295C33.0959 48.6811 33.3661 48.7569 33.6998 48.7569ZM40.0352 49.8733C39.4778 49.8733 38.9909 49.7475 38.5745 49.496C38.1581 49.2444 37.8347 48.8981 37.6042 48.4571C37.377 48.0126 37.2635 47.5026 37.2635 46.9272C37.2635 46.3414 37.3805 45.828 37.6145 45.387C37.8484 44.9458 38.1736 44.6013 38.59 44.3532C39.0064 44.1052 39.4882 43.9811 40.0352 43.9811C40.5962 43.9811 41.0847 44.1068 41.5011 44.3584C41.9175 44.61 42.241 44.9579 42.4714 45.4024C42.702 45.8434 42.8172 46.3518 42.8172 46.9272C42.8172 47.5061 42.7003 48.0178 42.4664 48.4623C42.2358 48.9033 41.9123 49.2496 41.4959 49.5012C41.0795 49.7492 40.5927 49.8733 40.0352 49.8733ZM40.0352 48.7052C40.5308 48.7052 40.8989 48.5398 41.1398 48.2089C41.3807 47.8782 41.5011 47.4509 41.5011 46.9272C41.5011 46.3862 41.379 45.9554 41.1347 45.635C40.8903 45.3111 40.5239 45.1492 40.0352 45.1492C39.7015 45.1492 39.4261 45.2249 39.2094 45.3766C38.996 45.5247 38.8377 45.7333 38.7345 46.002C38.6312 46.2673 38.5797 46.5758 38.5797 46.9272C38.5797 47.4682 38.7018 47.9006 38.9462 48.2245C39.1939 48.545 39.5569 48.7052 40.0352 48.7052ZM43.1537 49.7183L45.1924 46.8962L43.195 44.1361H44.6608L45.9151 45.9193L47.1487 44.1361H48.6145L46.6171 46.8962L48.6662 49.7183H47.2003L45.9151 47.8731L44.6196 49.7183H43.1537ZM51.5556 49.7183V42.2754H52.8151L56.263 47.5216V42.2754H57.5224V49.7183H56.263L52.8151 44.4721V49.7183H51.5556ZM60.5241 49.8733C60.1215 49.8733 59.7808 49.7975 59.5021 49.6459C59.2234 49.4908 59.0118 49.2858 58.8672 49.0308C58.7262 48.7758 58.6556 48.4951 58.6556 48.1883C58.6556 47.9196 58.7004 47.6784 58.7898 47.4647C58.8793 47.2477 59.0168 47.0616 59.2027 46.9065C59.3885 46.7481 59.6294 46.6188 59.9253 46.5189C60.149 46.4465 60.4104 46.381 60.7099 46.3224C61.0126 46.2639 61.3396 46.2105 61.6905 46.1622C62.045 46.1106 62.4149 46.0554 62.8003 45.9968L62.3564 46.2501C62.3598 45.8641 62.2738 45.5799 62.0983 45.3972C61.9228 45.2147 61.6269 45.1233 61.2105 45.1233C60.9593 45.1233 60.7168 45.1819 60.4827 45.299C60.2488 45.4162 60.0853 45.6177 59.9924 45.9037L58.8568 45.5472C58.9945 45.0751 59.256 44.6961 59.6415 44.4101C60.0302 44.1241 60.5533 43.9811 61.2105 43.9811C61.7061 43.9811 62.1413 44.062 62.5164 44.224C62.8949 44.3859 63.1753 44.6513 63.3577 45.0199C63.4575 45.2164 63.5177 45.4179 63.5384 45.6246C63.559 45.828 63.5694 46.0502 63.5694 46.2915V49.7183H62.4803V48.5088L62.661 48.7052C62.4097 49.1084 62.1156 49.4047 61.7783 49.5942C61.4445 49.7803 61.0264 49.8733 60.5241 49.8733ZM60.7718 48.881C61.0539 48.881 61.2949 48.8309 61.4944 48.731C61.694 48.6311 61.8523 48.5088 61.9692 48.3641C62.0898 48.2193 62.1706 48.0833 62.2119 47.9557C62.2773 47.7973 62.3133 47.6163 62.3202 47.4131C62.3306 47.2063 62.3358 47.0391 62.3358 46.9116L62.7177 47.0253C62.3427 47.0839 62.0209 47.1357 61.7525 47.1805C61.4841 47.2252 61.2536 47.2683 61.0609 47.3096C60.8681 47.3476 60.6978 47.3906 60.5498 47.4389C60.4054 47.4905 60.2831 47.5508 60.1834 47.6198C60.0836 47.6887 60.0062 47.7679 59.9511 47.8576C59.8994 47.9471 59.8738 48.0522 59.8738 48.1728C59.8738 48.3107 59.9081 48.4329 59.9769 48.5398C60.0457 48.6432 60.1456 48.7258 60.2763 48.7879C60.4104 48.8499 60.5756 48.881 60.7718 48.881ZM71.6076 49.7183V46.3276C71.6076 45.9452 71.513 45.6471 71.3237 45.4335C71.1345 45.2164 70.8781 45.1079 70.5546 45.1079C70.3551 45.1079 70.1761 45.1544 70.0178 45.2474C69.8595 45.337 69.7339 45.4713 69.641 45.6505C69.5481 45.8263 69.5017 46.0364 69.5017 46.2811L68.9494 45.9555C68.946 45.5695 69.0321 45.2301 69.2075 44.9373C69.3864 44.6409 69.6273 44.4101 69.9301 44.2447C70.233 44.0793 70.5702 43.9965 70.9418 43.9965C71.5577 43.9965 72.0292 44.1826 72.3561 44.5547C72.6864 44.9235 72.8515 45.4093 72.8515 46.0124V49.7183H71.6076ZM64.9028 49.7183V44.1361H66.0022V45.8676H66.157V49.7183H64.9028ZM68.263 49.7183V46.3432C68.263 45.9538 68.1683 45.6505 67.9791 45.4335C67.7898 45.2164 67.5317 45.1079 67.2048 45.1079C66.8882 45.1079 66.6336 45.2164 66.4409 45.4335C66.2517 45.6505 66.157 45.9331 66.157 46.2811L65.5996 45.9089C65.5996 45.5472 65.6891 45.2216 65.868 44.9321C66.047 44.6427 66.2878 44.4152 66.5907 44.2498C66.8969 44.081 67.2392 43.9965 67.6177 43.9965C68.0341 43.9965 68.3817 44.0862 68.6604 44.2654C68.9425 44.441 69.1525 44.6823 69.2901 44.989C69.4312 45.2921 69.5017 45.635 69.5017 46.0176V49.7183H68.263ZM76.6414 49.8733C76.077 49.8733 75.5816 49.751 75.1548 49.5063C74.7282 49.2617 74.3944 48.9223 74.1536 48.4882C73.9161 48.0539 73.7974 47.5543 73.7974 46.9892C73.7974 46.3793 73.9143 45.8503 74.1484 45.4024C74.3824 44.951 74.7075 44.6013 75.1239 44.3532C75.5403 44.1052 76.022 43.9811 76.5692 43.9811C77.1472 43.9811 77.6376 44.1171 78.0401 44.3893C78.4462 44.6582 78.7473 45.0389 78.9435 45.5316C79.1395 46.0244 79.2135 46.605 79.1654 47.2735H77.9318V46.8186C77.9284 46.2122 77.8217 45.7694 77.6118 45.4903C77.4018 45.2112 77.0715 45.0716 76.6207 45.0716C76.1115 45.0716 75.733 45.2301 75.4852 45.5472C75.2375 45.8607 75.1135 46.3207 75.1135 46.9272C75.1135 47.4923 75.2375 47.9298 75.4852 48.24C75.733 48.5501 76.0943 48.7052 76.5692 48.7052C76.8754 48.7052 77.1387 48.638 77.3589 48.5036C77.5824 48.3658 77.7545 48.1676 77.875 47.9092L79.1035 48.2813C78.8901 48.7844 78.5598 49.1755 78.1124 49.4546C77.6685 49.7337 77.1783 49.8733 76.6414 49.8733ZM74.7213 47.2735V46.3328H78.5563V47.2735H74.7213Z" fill="#25213E"/>
            <g filter="url(#filter0_d_1399_39079)">
                <path d="M255.122 62.5391H28.0158C24.215 62.5391 21.1338 65.6245 21.1338 69.4306V98.8348C21.1338 102.641 24.215 105.726 28.0158 105.726H255.122C258.923 105.726 262.004 102.641 262.004 98.8348V69.4306C262.004 65.6245 258.923 62.5391 255.122 62.5391Z" fill="white"/>
                <path d="M255.122 62.5391H28.0158C24.215 62.5391 21.1338 65.6245 21.1338 69.4306V98.8348C21.1338 102.641 24.215 105.726 28.0158 105.726H255.122C258.923 105.726 262.004 102.641 262.004 98.8348V69.4306C262.004 65.6245 258.923 62.5391 255.122 62.5391Z" stroke="#EEEEED" stroke-width="1.03616"/>
                <mask id="mask1_1399_39079" style="mask-type:luminance" maskUnits="userSpaceOnUse" x="34" y="73" width="58" height="22">
                    <path d="M34.8979 73.7383H91.5397V94.5281H34.8979V73.7383Z" fill="white"/>
                </mask>
                <g mask="url(#mask1_1399_39079)">
                    <path d="M89.8193 73.7383V94.5281H93.2604V73.7383H89.8193Z" fill="white"/>
                </g>
                <path d="M37.6919 89.3301L34.958 80.6468H36.4514L38.7397 87.9191L41.0581 80.6468H42.5514L39.8176 89.3301H37.6919ZM43.5135 81.8287V80.4961H44.9647V81.8287H43.5135ZM43.5135 89.3301V82.8177H44.9647V89.3301H43.5135ZM48.699 89.3301L46.3384 82.8177H47.7896L49.4276 87.5392L51.0595 82.8177H52.5167L50.1563 89.3301H48.699ZM55.2234 89.5109C54.7539 89.5109 54.3564 89.4226 54.0312 89.2456C53.7061 89.0647 53.4591 88.8255 53.2906 88.5281C53.1259 88.2305 53.0436 87.903 53.0436 87.5451C53.0436 87.2316 53.0958 86.9502 53.2001 86.7009C53.3046 86.4477 53.4651 86.2306 53.6819 86.0497C53.8988 85.8648 54.1797 85.7141 54.525 85.5975C54.7859 85.5131 55.091 85.4367 55.4403 85.3683C55.7936 85.3 56.175 85.2377 56.5845 85.1813C56.9979 85.121 57.4295 85.0567 57.8791 84.9884L57.3612 85.2839C57.3652 84.8336 57.2649 84.502 57.0602 84.2889C56.8554 84.0758 56.5101 83.9693 56.0244 83.9693C55.7313 83.9693 55.4483 84.0376 55.1753 84.1743C54.9023 84.311 54.7117 84.5462 54.6032 84.8799L53.2785 84.4638C53.439 83.913 53.7442 83.4709 54.1938 83.1372C54.6475 82.8035 55.2576 82.6367 56.0244 82.6367C56.6025 82.6367 57.1104 82.7311 57.5479 82.9201C57.9895 83.1091 58.3167 83.4186 58.5294 83.8487C58.6459 84.0779 58.7161 84.3131 58.7403 84.5543C58.7643 84.7914 58.7764 85.0508 58.7764 85.3322V89.3301H57.5058V87.9191L57.7165 88.1482C57.4235 88.6185 57.0803 88.9643 56.6869 89.1853C56.2973 89.4024 55.8096 89.5109 55.2234 89.5109ZM55.5126 88.3532C55.8417 88.3532 56.1228 88.2949 56.3556 88.1783C56.5885 88.0618 56.7731 87.9191 56.9097 87.7502C57.05 87.5814 57.1445 87.4226 57.1927 87.2738C57.269 87.0889 57.311 86.8778 57.319 86.6406C57.3311 86.3995 57.3372 86.2045 57.3372 86.0558L57.7828 86.1885C57.3451 86.2567 56.9699 86.3171 56.6566 86.3693C56.3435 86.4216 56.0745 86.4719 55.8498 86.5201C55.6249 86.5642 55.4263 86.6145 55.2536 86.6708C55.085 86.7311 54.9425 86.8015 54.8261 86.8818C54.7096 86.9622 54.6193 87.0548 54.5551 87.1592C54.4949 87.2638 54.4648 87.3863 54.4648 87.5271C54.4648 87.6879 54.5049 87.8306 54.5852 87.9552C54.6655 88.0758 54.7819 88.1723 54.9345 88.2447C55.091 88.317 55.2837 88.3532 55.5126 88.3532ZM61.8822 89.3301V82.0096H59.0761V80.6468H66.1396V82.0096H63.3334V89.3301H61.8822ZM69.2667 89.5109C68.6084 89.5109 68.0303 89.3683 67.5325 89.0828C67.0347 88.7975 66.6452 88.4014 66.3643 87.8949C66.0873 87.3884 65.9488 86.8055 65.9488 86.1462C65.9488 85.4347 66.0852 84.8175 66.3582 84.2949C66.6312 83.7684 67.0107 83.3603 67.4963 83.0709C67.9821 82.7814 68.5441 82.6367 69.1825 82.6367C69.8569 82.6367 70.429 82.7954 70.8987 83.1131C71.3725 83.4267 71.7237 83.8708 71.9525 84.4458C72.1814 85.0206 72.2677 85.698 72.2115 86.4778H70.7722V85.9472C70.7682 85.2397 70.6437 84.723 70.3989 84.3974C70.154 84.0718 69.7687 83.909 69.2427 83.909C68.6486 83.909 68.2069 84.094 67.9179 84.4638C67.6288 84.8296 67.4844 85.3664 67.4844 86.0739C67.4844 86.7332 67.6288 87.2437 67.9179 87.6054C68.2069 87.9673 68.6285 88.1482 69.1825 88.1482C69.5398 88.1482 69.8469 88.0698 70.1038 87.913C70.3648 87.7523 70.5655 87.5211 70.706 87.2195L72.1392 87.6538C71.8903 88.2407 71.5048 88.6969 70.9829 89.0225C70.4651 89.3481 69.8931 89.5109 69.2667 89.5109ZM67.0267 86.4778V85.3804H71.5009V86.4778H67.0267ZM76.5513 89.5109C75.8809 89.5109 75.3088 89.3623 74.835 89.0647C74.3614 88.7633 73.9981 88.3532 73.7452 87.8346C73.4962 87.3161 73.3698 86.7291 73.3658 86.0739C73.3698 85.4065 73.5002 84.8156 73.7571 84.301C74.0181 83.7824 74.3875 83.3764 74.8651 83.0829C75.3429 82.7854 75.911 82.6367 76.5694 82.6367C77.3081 82.6367 77.9322 82.8236 78.4422 83.1975C78.956 83.5674 79.2912 84.0739 79.4478 84.7171L78.0026 85.1091C77.8902 84.7593 77.7035 84.488 77.4425 84.2949C77.1816 84.0979 76.8846 83.9994 76.5513 83.9994C76.1739 83.9994 75.8629 84.09 75.6179 84.2709C75.373 84.4477 75.1924 84.6929 75.076 85.0066C74.9595 85.3201 74.9013 85.6759 74.9013 86.0739C74.9013 86.6929 75.0398 87.1934 75.3168 87.5753C75.5939 87.9572 76.0053 88.1482 76.5513 88.1482C76.9367 88.1482 77.2398 88.0597 77.4606 87.8828C77.6854 87.706 77.854 87.4507 77.9664 87.117L79.4478 87.4487C79.2471 88.112 78.8958 88.6226 78.3939 88.9803C77.8921 89.3341 77.278 89.5109 76.5513 89.5109ZM85.3248 89.3301V86.1944C85.3248 85.9894 85.3108 85.7623 85.2826 85.5131C85.2546 85.2638 85.1883 85.0246 85.084 84.7954C84.9835 84.5623 84.8311 84.3713 84.6263 84.2227C84.4256 84.0739 84.1526 83.9994 83.8073 83.9994C83.6226 83.9994 83.4399 84.0297 83.2593 84.09C83.0787 84.1503 82.914 84.2548 82.7656 84.4035C82.621 84.5483 82.5046 84.7493 82.4163 85.0066C82.3279 85.2598 82.2838 85.5854 82.2838 85.9834L81.4227 85.6156C81.4227 85.0607 81.5291 84.5583 81.7418 84.1081C81.9586 83.6578 82.2757 83.3 82.6933 83.0347C83.1107 82.7653 83.6247 82.6307 84.2348 82.6307C84.7166 82.6307 85.1141 82.7111 85.4272 82.8718C85.7403 83.0327 85.9892 83.2377 86.1739 83.487C86.3586 83.7362 86.4951 84.0015 86.5833 84.283C86.6717 84.5643 86.7279 84.8317 86.752 85.0849C86.78 85.3341 86.7942 85.5371 86.7942 85.6939V89.3301H85.3248ZM80.8145 89.3301V80.6468H82.1091V85.2176H82.2838V89.3301H80.8145Z" fill="#25213E"/>
            </g>
            <path d="M21.96 130.742V123.3H23.2039V130.742H21.96ZM28.6056 130.742V128.055C28.6056 127.879 28.5936 127.684 28.5696 127.471C28.5454 127.257 28.4887 127.052 28.3992 126.856C28.3132 126.656 28.1824 126.492 28.0069 126.365C27.8349 126.237 27.6009 126.173 27.3049 126.173C27.1466 126.173 26.9902 126.199 26.8352 126.251C26.6804 126.303 26.5394 126.392 26.4121 126.52C26.2882 126.644 26.1884 126.816 26.1126 127.037C26.037 127.254 25.9991 127.533 25.9991 127.874L25.261 127.559C25.261 127.083 25.3522 126.652 25.5345 126.266C25.7203 125.88 25.9922 125.574 26.3501 125.346C26.7079 125.116 27.1485 125 27.6714 125C28.0844 125 28.425 125.069 28.6935 125.207C28.9618 125.345 29.1751 125.52 29.3334 125.734C29.4918 125.948 29.6088 126.175 29.6844 126.416C29.7601 126.657 29.8084 126.887 29.829 127.104C29.853 127.317 29.8651 127.491 29.8651 127.626V130.742H28.6056ZM24.7396 130.742V125.16H25.8495V126.892H25.9991V130.742H24.7396ZM33.8908 130.897C33.3471 130.897 32.8913 130.768 32.523 130.51C32.1549 130.251 31.8779 129.9 31.6921 129.455C31.5062 129.008 31.4133 128.506 31.4133 127.951C31.4133 127.39 31.5062 126.887 31.6921 126.442C31.8779 125.998 32.1497 125.648 32.5076 125.393C32.8688 125.135 33.3144 125.005 33.8443 125.005C34.3709 125.005 34.8267 125.135 35.2121 125.393C35.601 125.648 35.902 125.998 36.1155 126.442C36.3288 126.883 36.4355 127.386 36.4355 127.951C36.4355 128.51 36.3305 129.011 36.1206 129.455C35.9107 129.9 35.6148 130.251 35.2329 130.51C34.8509 130.768 34.4036 130.897 33.8908 130.897ZM31.2017 130.742V123.3H32.4559V126.825H32.3011V130.742H31.2017ZM33.6998 129.781C34.0233 129.781 34.2899 129.7 34.4999 129.538C34.7098 129.376 34.8646 129.157 34.9644 128.882C35.0677 128.603 35.1192 128.292 35.1192 127.951C35.1192 127.614 35.0677 127.307 34.9644 127.031C34.8613 126.752 34.7011 126.532 34.4844 126.37C34.2676 126.204 33.9924 126.122 33.6585 126.122C33.3421 126.122 33.084 126.199 32.8844 126.354C32.6847 126.506 32.5368 126.719 32.4405 126.995C32.3476 127.267 32.3011 127.586 32.3011 127.951C32.3011 128.313 32.3476 128.632 32.4405 128.908C32.5368 129.183 32.6865 129.399 32.8895 129.554C33.0959 129.705 33.3661 129.781 33.6998 129.781ZM40.0352 130.897C39.4778 130.897 38.9909 130.772 38.5745 130.52C38.1581 130.268 37.8347 129.922 37.6042 129.481C37.377 129.037 37.2635 128.527 37.2635 127.951C37.2635 127.366 37.3805 126.852 37.6145 126.411C37.8484 125.97 38.1736 125.626 38.59 125.377C39.0064 125.129 39.4882 125.005 40.0352 125.005C40.5962 125.005 41.0847 125.131 41.5011 125.383C41.9175 125.634 42.241 125.982 42.4714 126.427C42.702 126.868 42.8172 127.376 42.8172 127.951C42.8172 128.53 42.7003 129.042 42.4664 129.486C42.2358 129.927 41.9123 130.273 41.4959 130.525C41.0795 130.773 40.5927 130.897 40.0352 130.897ZM40.0352 129.729C40.5308 129.729 40.8989 129.564 41.1398 129.233C41.3807 128.902 41.5011 128.475 41.5011 127.951C41.5011 127.41 41.379 126.98 41.1347 126.659C40.8903 126.335 40.5239 126.173 40.0352 126.173C39.7015 126.173 39.4261 126.249 39.2094 126.401C38.996 126.549 38.8377 126.757 38.7345 127.026C38.6312 127.291 38.5797 127.6 38.5797 127.951C38.5797 128.492 38.7018 128.925 38.9462 129.249C39.1939 129.569 39.5569 129.729 40.0352 129.729ZM43.1537 130.742L45.1924 127.92L43.195 125.16H44.6608L45.9151 126.943L47.1487 125.16H48.6145L46.6171 127.92L48.6662 130.742H47.2003L45.9151 128.897L44.6196 130.742H43.1537ZM54.699 130.897C53.9558 130.897 53.3192 130.736 52.7892 130.412C52.2593 130.085 51.8516 129.629 51.566 129.047C51.2838 128.465 51.1427 127.789 51.1427 127.021C51.1427 126.253 51.2838 125.577 51.566 124.995C51.8516 124.413 52.2593 123.96 52.7892 123.636C53.3192 123.308 53.9558 123.145 54.699 123.145C55.5558 123.145 56.2699 123.36 56.8411 123.791C57.4123 124.218 57.8132 124.795 58.0437 125.522L56.7894 125.868C56.6449 125.383 56.3988 125.004 56.0514 124.731C55.7039 124.456 55.2531 124.318 54.699 124.318C54.2001 124.318 53.7837 124.43 53.45 124.654C53.1196 124.878 52.8701 125.193 52.7015 125.6C52.5363 126.003 52.452 126.477 52.4486 127.021C52.4486 127.565 52.5312 128.041 52.6963 128.447C52.865 128.851 53.1161 129.164 53.45 129.388C53.7837 129.612 54.2001 129.724 54.699 129.724C55.2531 129.724 55.7039 129.586 56.0514 129.311C56.3988 129.035 56.6449 128.656 56.7894 128.174L58.0437 128.52C57.8132 129.247 57.4123 129.826 56.8411 130.256C56.2699 130.684 55.5558 130.897 54.699 130.897ZM61.639 130.897C61.0815 130.897 60.5947 130.772 60.1783 130.52C59.7619 130.268 59.4385 129.922 59.208 129.481C58.9809 129.037 58.8672 128.527 58.8672 127.951C58.8672 127.366 58.9843 126.852 59.2182 126.411C59.4523 125.97 59.7775 125.626 60.1937 125.377C60.6101 125.129 61.0919 125.005 61.639 125.005C62.1999 125.005 62.6886 125.131 63.1049 125.383C63.5212 125.634 63.8447 125.982 64.0753 126.427C64.3058 126.868 64.4211 127.376 64.4211 127.951C64.4211 128.53 64.3041 129.042 64.0701 129.486C63.8395 129.927 63.5161 130.273 63.0998 130.525C62.6834 130.773 62.1964 130.897 61.639 130.897ZM61.639 129.729C62.1345 129.729 62.5028 129.564 62.7436 129.233C62.9844 128.902 63.1049 128.475 63.1049 127.951C63.1049 127.41 62.9828 126.98 62.7384 126.659C62.4941 126.335 62.1277 126.173 61.639 126.173C61.3052 126.173 61.03 126.249 60.8132 126.401C60.5999 126.549 60.4416 126.757 60.3383 127.026C60.2351 127.291 60.1835 127.6 60.1835 127.951C60.1835 128.492 60.3056 128.925 60.5499 129.249C60.7976 129.569 61.1607 129.729 61.639 129.729ZM65.6616 130.742V123.145H66.9055V130.742H65.6616ZM70.9137 130.897C70.3562 130.897 69.8693 130.772 69.4529 130.52C69.0366 130.268 68.7131 129.922 68.4825 129.481C68.2555 129.037 68.1419 128.527 68.1419 127.951C68.1419 127.366 68.2588 126.852 68.4929 126.411C68.7269 125.97 69.052 125.626 69.4684 125.377C69.8848 125.129 70.3665 125.005 70.9137 125.005C71.4745 125.005 71.9632 125.131 72.3796 125.383C72.7958 125.634 73.1193 125.982 73.3499 126.427C73.5805 126.868 73.6957 127.376 73.6957 127.951C73.6957 128.53 73.5786 129.042 73.3447 129.486C73.1141 129.927 72.7908 130.273 72.3744 130.525C71.958 130.773 71.4711 130.897 70.9137 130.897ZM70.9137 129.729C71.4091 129.729 71.7774 129.564 72.0182 129.233C72.2591 128.902 72.3796 128.475 72.3796 127.951C72.3796 127.41 72.2573 126.98 72.013 126.659C71.7688 126.335 71.4022 126.173 70.9137 126.173C70.5798 126.173 70.3046 126.249 70.0878 126.401C69.8745 126.549 69.7161 126.757 69.613 127.026C69.5097 127.291 69.4581 127.6 69.4581 127.951C69.4581 128.492 69.5803 128.925 69.8245 129.249C70.0723 129.569 70.4354 129.729 70.9137 129.729ZM74.8329 130.742V125.16H75.9323V126.52L75.7982 126.344C75.8669 126.158 75.9581 125.989 76.0717 125.837C76.1887 125.682 76.3281 125.555 76.4898 125.455C76.6274 125.362 76.7789 125.29 76.944 125.238C77.1126 125.183 77.2847 125.15 77.4601 125.14C77.6357 125.126 77.806 125.133 77.9711 125.16V126.323C77.806 126.275 77.615 126.26 77.3982 126.277C77.1849 126.294 76.9922 126.354 76.8201 126.458C76.6481 126.551 76.507 126.67 76.3969 126.814C76.2902 126.959 76.211 127.124 76.1594 127.31C76.1079 127.493 76.0821 127.691 76.0821 127.905V130.742H74.8329Z" fill="#25213E"/>
            <path d="M25.7566 157.843H28.4993C29.0549 157.843 29.5629 158.157 29.8115 158.655C30.06 159.152 30.568 159.467 31.1236 159.467H35.7981C36.3538 159.467 36.8618 159.152 37.1104 158.655C37.3589 158.157 37.8669 157.843 38.4225 157.843H41.1653M31.0009 151.346H35.921C36.7943 151.346 37.2309 151.346 37.6164 151.478C37.9574 151.596 38.2679 151.789 38.5255 152.041C38.8168 152.327 39.0121 152.718 39.4027 153.5L41.1597 157.019C41.3131 157.325 41.3897 157.479 41.4438 157.64C41.4918 157.783 41.5264 157.93 41.5472 158.079C41.5708 158.248 41.5708 158.419 41.5708 158.762V160.441C41.5708 161.806 41.5708 162.488 41.3056 163.009C41.0723 163.467 40.7001 163.839 40.2423 164.073C39.7219 164.339 39.0407 164.339 37.6781 164.339H29.2438C27.8812 164.339 27.1999 164.339 26.6794 164.073C26.2216 163.839 25.8495 163.467 25.6162 163.009C25.3511 162.488 25.3511 161.806 25.3511 160.441V158.762C25.3511 158.419 25.3511 158.248 25.3746 158.079C25.3953 157.93 25.4301 157.783 25.478 157.64C25.5321 157.479 25.6088 157.325 25.762 157.019L27.5191 153.5C27.9096 152.718 28.1049 152.327 28.3962 152.041C28.6538 151.789 28.9644 151.596 29.3053 151.478C29.6908 151.346 30.1275 151.346 31.0009 151.346Z" stroke="#DB4CF4" stroke-width="1.6" stroke-linecap="round" stroke-linejoin="round"/>
            <path d="M40.5976 162.65V158.492H38.0487L36.0096 160.051H30.9121L29.3827 158.492H26.3242V160.571V162.65L27.8534 163.69H38.0487L40.5976 162.65Z" fill="#DB4CF4" stroke="#DB4CF4"/>
            <path d="M61.7927 157.843H64.5355C65.0911 157.843 65.5991 158.157 65.8476 158.655C66.0961 159.152 66.6041 159.467 67.1599 159.467H71.8344C72.39 159.467 72.898 159.152 73.1465 158.655C73.395 158.157 73.903 157.843 74.4587 157.843H77.2014M67.037 151.346H71.9571C72.8305 151.346 73.2672 151.346 73.6527 151.478C73.9936 151.596 74.3041 151.789 74.5618 152.041C74.8531 152.327 75.0484 152.718 75.4389 153.5L77.196 157.019C77.3492 157.325 77.4259 157.479 77.4799 157.64C77.5279 157.783 77.5626 157.93 77.5834 158.079C77.6069 158.248 77.6069 158.419 77.6069 158.762V160.441C77.6069 161.806 77.6069 162.488 77.3418 163.009C77.1085 163.467 76.7364 163.839 76.2786 164.073C75.7581 164.339 75.0768 164.339 73.7142 164.339H65.2799C63.9174 164.339 63.2361 164.339 62.7157 164.073C62.2579 163.839 61.8857 163.467 61.6524 163.009C61.3872 162.488 61.3872 161.806 61.3872 160.441V158.762C61.3872 158.419 61.3872 158.248 61.4107 158.079C61.4316 157.93 61.4662 157.783 61.5142 157.64C61.5683 157.479 61.6449 157.325 61.7981 157.019L63.5552 153.5C63.9458 152.718 64.1411 152.327 64.4325 152.041C64.6901 151.789 65.0006 151.596 65.3416 151.478C65.7271 151.346 66.1637 151.346 67.037 151.346Z" stroke="#8057EC" stroke-width="1.6" stroke-linecap="round" stroke-linejoin="round"/>
            <path d="M76.6337 162.65V158.492H74.0849L72.0459 160.051H66.9482L65.419 158.492H62.3604V160.571V162.65L63.8897 163.69H74.0849L76.6337 162.65Z" fill="#8057EC" stroke="#8057EC"/>
            <path d="M97.8293 157.843H100.572C101.128 157.843 101.636 158.157 101.884 158.655C102.133 159.152 102.641 159.467 103.196 159.467H107.871C108.427 159.467 108.935 159.152 109.183 158.655C109.432 158.157 109.94 157.843 110.495 157.843H113.238M103.074 151.346H107.994C108.867 151.346 109.304 151.346 109.689 151.478C110.03 151.596 110.341 151.789 110.598 152.041C110.89 152.327 111.085 152.718 111.476 153.5L113.233 157.019C113.386 157.325 113.463 157.479 113.517 157.64C113.565 157.783 113.599 157.93 113.62 158.079C113.644 158.248 113.644 158.419 113.644 158.762V160.441C113.644 161.806 113.644 162.488 113.378 163.009C113.145 163.467 112.773 163.839 112.315 164.073C111.795 164.339 111.113 164.339 109.751 164.339H101.317C99.954 164.339 99.2727 164.339 98.7523 164.073C98.2945 163.839 97.9222 163.467 97.6891 163.009C97.4238 162.488 97.4238 161.806 97.4238 160.441V158.762C97.4238 158.419 97.4238 158.248 97.4473 158.079C97.4682 157.93 97.5029 157.783 97.5509 157.64C97.6048 157.479 97.6815 157.325 97.8348 157.019L99.5918 153.5C99.9824 152.718 100.178 152.327 100.469 152.041C100.727 151.789 101.037 151.596 101.378 151.478C101.764 151.346 102.2 151.346 103.074 151.346Z" stroke="#2864ED" stroke-width="1.6" stroke-linecap="round" stroke-linejoin="round"/>
            <path d="M112.67 162.65V158.492H110.121L108.082 160.051H102.985L101.455 158.492H98.397V160.571V162.65L99.9263 163.69H110.121L112.67 162.65Z" fill="#2864ED" stroke="#2864ED"/>
            <path d="M133.865 157.843H136.608C137.163 157.843 137.672 158.157 137.92 158.655C138.169 159.152 138.676 159.467 139.233 159.467H143.907C144.462 159.467 144.971 159.152 145.219 158.655C145.468 158.157 145.975 157.843 146.532 157.843H149.274M139.11 151.346H144.03C144.903 151.346 145.339 151.346 145.725 151.478C146.066 151.596 146.376 151.789 146.634 152.041C146.925 152.327 147.121 152.718 147.511 153.5L149.268 157.019C149.421 157.325 149.498 157.479 149.553 157.64C149.601 157.783 149.636 157.93 149.656 158.079C149.68 158.248 149.68 158.419 149.68 158.762V160.441C149.68 161.806 149.68 162.488 149.414 163.009C149.181 163.467 148.809 163.839 148.351 164.073C147.831 164.339 147.149 164.339 145.787 164.339H137.353C135.99 164.339 135.309 164.339 134.789 164.073C134.331 163.839 133.958 163.467 133.725 163.009C133.46 162.488 133.46 161.806 133.46 160.441V158.762C133.46 158.419 133.46 158.248 133.483 158.079C133.504 157.93 133.539 157.783 133.587 157.64C133.64 157.479 133.717 157.325 133.87 157.019L135.628 153.5C136.019 152.718 136.213 152.327 136.505 152.041C136.762 151.789 137.072 151.596 137.414 151.478C137.799 151.346 138.236 151.346 139.11 151.346Z" stroke="#10BBE0" stroke-width="1.6" stroke-linecap="round" stroke-linejoin="round"/>
            <path d="M148.707 162.65V158.492H146.157L144.119 160.051H139.021L137.492 158.492H134.434V160.571V162.65L135.962 163.69H146.157L148.707 162.65Z" fill="#10BBE0" stroke="#10BBE0"/>
            <path d="M181.844 146.822H173.972C172.574 146.822 171.875 146.822 171.259 147.044C170.714 147.241 170.217 147.56 169.804 147.983C169.338 148.458 169.026 149.11 168.4 150.414L165.59 156.279C165.344 156.79 165.221 157.046 165.135 157.315C165.059 157.552 165.003 157.797 164.969 158.046C164.932 158.326 164.932 158.613 164.932 159.184V161.982C164.932 164.256 164.932 165.393 165.356 166.261C165.73 167.025 166.325 167.647 167.057 168.036C167.89 168.479 168.98 168.479 171.16 168.479H184.655C186.835 168.479 187.925 168.479 188.758 168.036C189.491 167.647 190.086 167.025 190.459 166.261C190.883 165.393 190.883 164.256 190.883 161.982V159.184C190.883 158.613 190.883 158.326 190.846 158.046C190.812 157.797 190.757 157.552 190.681 157.315C190.594 157.046 190.471 156.79 190.225 156.279L187.415 150.414C186.789 149.11 186.477 148.458 186.011 147.983C185.599 147.56 185.102 147.241 184.556 147.044C183.94 146.822 183.24 146.822 181.844 146.822Z" fill="white" fill-opacity="0.1"/>
            <path d="M165.58 157.65H169.969C170.858 157.65 171.671 158.175 172.068 159.004C172.467 159.833 173.279 160.358 174.168 160.358H181.647C182.536 160.358 183.349 159.833 183.747 159.004C184.145 158.175 184.957 157.65 185.846 157.65H190.234M173.972 146.822H181.844C183.24 146.822 183.94 146.822 184.556 147.044C185.102 147.241 185.599 147.56 186.011 147.983C186.477 148.458 186.789 149.11 187.415 150.414L190.225 156.279C190.471 156.79 190.594 157.046 190.681 157.315C190.757 157.552 190.812 157.797 190.846 158.046C190.883 158.326 190.883 158.613 190.883 159.184V161.982C190.883 164.256 190.883 165.393 190.459 166.261C190.086 167.025 189.491 167.647 188.758 168.036C187.925 168.479 186.835 168.479 184.655 168.479H171.16C168.98 168.479 167.89 168.479 167.057 168.036C166.325 167.647 165.73 167.025 165.356 166.261C164.932 165.393 164.932 164.256 164.932 161.982V159.184C164.932 158.613 164.932 158.326 164.969 158.046C165.003 157.797 165.059 157.552 165.135 157.315C165.221 157.046 165.344 156.79 165.59 156.279L168.4 150.414C169.026 149.11 169.338 148.458 169.804 147.983C170.217 147.56 170.714 147.241 171.259 147.044C171.875 146.822 172.574 146.822 173.972 146.822Z" stroke="#EF3A00" stroke-width="2" stroke-linecap="round" stroke-linejoin="round"/>
            <path d="M189.946 166.967L190.595 158.521H184.756L182.161 160.471H172.429L170.483 158.521H164.643V159.821V162.42L163.995 163.719L164.643 166.318L166.59 168.267H182.161H186.702L189.946 166.967Z" fill="#EF3A00"/>
            <path d="M205.938 157.843H208.68C209.236 157.843 209.744 158.157 209.993 158.655C210.241 159.152 210.749 159.467 211.305 159.467H215.979C216.535 159.467 217.043 159.152 217.292 158.655C217.54 158.157 218.048 157.843 218.604 157.843H221.347M211.181 151.346H216.102C216.975 151.346 217.412 151.346 217.798 151.478C218.139 151.596 218.449 151.789 218.706 152.041C218.998 152.327 219.193 152.718 219.583 153.5L221.341 157.019C221.495 157.325 221.571 157.479 221.624 157.64C221.672 157.783 221.707 157.93 221.728 158.079C221.751 158.248 221.751 158.419 221.751 158.762V160.441C221.751 161.806 221.751 162.488 221.487 163.009C221.253 163.467 220.881 163.839 220.423 164.073C219.902 164.339 219.221 164.339 217.859 164.339H209.424C208.062 164.339 207.381 164.339 206.86 164.073C206.402 163.839 206.03 163.467 205.798 163.009C205.532 162.488 205.532 161.806 205.532 160.441V158.762C205.532 158.419 205.532 158.248 205.555 158.079C205.576 157.93 205.611 157.783 205.659 157.64C205.713 157.479 205.79 157.325 205.943 157.019L207.7 153.5C208.091 152.718 208.286 152.327 208.577 152.041C208.835 151.789 209.145 151.596 209.487 151.478C209.872 151.346 210.308 151.346 211.181 151.346Z" stroke="#EFBB00" stroke-width="1.6" stroke-linecap="round" stroke-linejoin="round"/>
            <path d="M220.778 162.65V158.492H218.23L216.191 160.051H211.093L209.563 158.492H206.505V160.571V162.65L208.035 163.69H218.23L220.778 162.65Z" fill="#EFBB00" stroke="#EFBB00"/>
            <path d="M241.974 157.843H244.716C245.272 157.843 245.78 158.157 246.029 158.655C246.277 159.152 246.785 159.467 247.341 159.467H252.015C252.571 159.467 253.079 159.152 253.328 158.655C253.576 158.157 254.084 157.843 254.64 157.843H257.383M247.218 151.346H252.138C253.011 151.346 253.448 151.346 253.834 151.478C254.175 151.596 254.485 151.789 254.742 152.041C255.034 152.327 255.229 152.718 255.619 153.5L257.376 157.019C257.531 157.325 257.607 157.479 257.66 157.64C257.708 157.783 257.743 157.93 257.764 158.079C257.788 158.248 257.788 158.419 257.788 158.762V160.441C257.788 161.806 257.788 162.488 257.523 163.009C257.289 163.467 256.917 163.839 256.459 164.073C255.939 164.339 255.257 164.339 253.895 164.339H245.461C244.098 164.339 243.417 164.339 242.897 164.073C242.439 163.839 242.066 163.467 241.834 163.009C241.568 162.488 241.568 161.806 241.568 160.441V158.762C241.568 158.419 241.568 158.248 241.591 158.079C241.612 157.93 241.647 157.783 241.695 157.64C241.75 157.479 241.826 157.325 241.979 157.019L243.736 153.5C244.127 152.718 244.323 152.327 244.613 152.041C244.872 151.789 245.182 151.596 245.523 151.478C245.908 151.346 246.344 151.346 247.218 151.346Z" stroke="#93ADB2" stroke-width="1.6" stroke-linecap="round" stroke-linejoin="round"/>
            <path d="M256.814 162.65V158.492H254.266L252.226 160.051H247.129L245.599 158.492H242.541V160.571V162.65L244.071 163.69H254.266L256.814 162.65Z" fill="#93ADB2" stroke="#93ADB2"/>
        </g>
        <path d="M261.994 20.5938H21.146C9.93041 20.5938 0.838379 29.6983 0.838379 40.9293V182.225C0.838379 193.456 9.93041 202.56 21.146 202.56H261.994C273.209 202.56 282.301 193.456 282.301 182.225V40.9293C282.301 29.6983 273.209 20.5938 261.994 20.5938Z" stroke="url(#paint1_linear_1399_39079)" stroke-width="0.521644"/>
        <g filter="url(#filter1_d_1399_39079)">
            <path fill-rule="evenodd" clip-rule="evenodd" d="M128.174 1.29883C116.586 1.29883 107.193 10.7054 107.193 22.3089V96.7973C107.193 108.401 116.587 117.807 128.174 117.807H163.537L169.977 128.98C171.927 132.364 176.536 133.007 179.336 130.287L189.13 120.771C190.616 119.329 192.439 118.315 194.41 117.807H340.454C352.041 117.807 361.434 108.401 361.434 96.7973V22.3089C361.434 10.7053 352.041 1.29883 340.454 1.29883H128.174Z" fill="white"/>
            <path d="M163.537 117.808L163.819 117.646L163.724 117.483H163.537V117.808ZM194.41 117.808V117.483H194.37L194.33 117.493L194.41 117.808ZM107.517 22.3095C107.517 10.8854 116.766 1.62429 128.174 1.62429V0.974609C116.408 0.974609 106.869 10.5266 106.869 22.3095H107.517ZM107.517 96.798V22.3095H106.869V96.798H107.517ZM128.174 117.483C116.766 117.483 107.517 108.222 107.517 96.798H106.869C106.869 108.581 116.408 118.133 128.174 118.133V117.483ZM163.537 117.483H128.174V118.133H163.537V117.483ZM170.257 128.818L163.819 117.646L163.257 117.97L169.695 129.143L170.257 128.818ZM179.111 130.055C176.461 132.627 172.102 132.019 170.257 128.818L169.695 129.143C171.752 132.711 176.61 133.389 179.562 130.521L179.111 130.055ZM188.905 120.539L179.111 130.055L179.562 130.521L189.356 121.005L188.905 120.539ZM194.33 117.493C192.304 118.015 190.431 119.056 188.905 120.539L189.356 121.005C190.8 119.602 192.574 118.616 194.492 118.123L194.33 117.493ZM340.454 117.483H194.41V118.133H340.454V117.483ZM361.11 96.798C361.11 108.222 351.862 117.483 340.454 117.483V118.133C352.22 118.133 361.759 108.581 361.759 96.798H361.11ZM361.11 22.3095V96.798H361.759V22.3095H361.11ZM340.454 1.62429C351.862 1.62429 361.11 10.8854 361.11 22.3095H361.759C361.759 10.5266 352.22 0.974609 340.454 0.974609V1.62429ZM128.174 1.62429H340.454V0.974609H128.174V1.62429Z" fill="url(#paint2_linear_1399_39079)"/>
            <path d="M127.893 71.8V62.3454H129.06V66.5147H134.03V62.3454H135.197V71.8H134.03V67.6242H129.06V71.8H127.893ZM140.283 71.9969C139.588 71.9969 138.98 71.8437 138.46 71.5374C137.944 71.2265 137.541 70.7954 137.253 70.244C136.965 69.688 136.821 69.0402 136.821 68.3005C136.821 67.5257 136.963 66.856 137.247 66.2914C137.531 65.7224 137.927 65.2847 138.434 64.9783C138.945 64.6675 139.544 64.5121 140.23 64.5121C140.942 64.5121 141.548 64.6762 142.047 65.0045C142.549 65.3328 142.925 65.8012 143.174 66.4095C143.427 67.018 143.537 67.7424 143.502 68.5829H142.322V68.1626C142.309 67.2916 142.132 66.6416 141.791 66.2126C141.45 65.7792 140.942 65.5626 140.269 65.5626C139.549 65.5626 139 65.7946 138.624 66.2586C138.247 66.7226 138.06 67.3878 138.06 68.2545C138.06 69.0905 138.247 69.7384 138.624 70.198C139 70.6576 139.536 70.8874 140.23 70.8874C140.698 70.8874 141.105 70.7801 141.45 70.5657C141.795 70.3512 142.066 70.0426 142.263 69.6399L143.384 70.0272C143.108 70.6531 142.693 71.139 142.139 71.4849C141.587 71.8262 140.968 71.9969 140.283 71.9969ZM137.666 68.5829V67.6439H142.899V68.5829H137.666ZM145.271 71.8V62.1485H146.438V71.8H145.271ZM148.714 71.8V62.1485H149.881V71.8H148.714ZM155.043 71.9969C154.339 71.9969 153.731 71.8371 153.22 71.5176C152.713 71.1981 152.322 70.756 152.046 70.1913C151.771 69.6268 151.633 68.9789 151.633 68.248C151.633 67.5039 151.773 66.8517 152.052 66.2914C152.332 65.7311 152.728 65.2956 153.239 64.9848C153.751 64.6697 154.352 64.5121 155.043 64.5121C155.75 64.5121 156.36 64.6719 156.871 64.9914C157.383 65.3065 157.775 65.7465 158.046 66.3111C158.321 66.8713 158.458 67.517 158.458 68.248C158.458 68.9877 158.321 69.6399 158.046 70.2045C157.771 70.7648 157.376 71.2047 156.865 71.5242C156.354 71.8393 155.746 71.9969 155.043 71.9969ZM155.043 70.8874C155.776 70.8874 156.324 70.6422 156.682 70.152C157.04 69.6617 157.219 69.0271 157.219 68.248C157.219 67.447 157.037 66.8101 156.675 66.3373C156.312 65.8603 155.768 65.6217 155.043 65.6217C154.549 65.6217 154.143 65.7334 153.823 65.9566C153.504 66.1798 153.265 66.4884 153.108 66.8823C152.951 67.2762 152.872 67.7315 152.872 68.248C152.872 69.0447 153.055 69.6837 153.422 70.1651C153.79 70.6466 154.329 70.8874 155.043 70.8874ZM166.529 74.5576C165.926 74.5576 165.454 74.3869 165.112 74.0454C164.771 73.704 164.601 73.2313 164.601 72.6273V68.793C164.601 68.7098 164.579 68.6398 164.535 68.5829L163.946 67.7424C163.85 67.5979 163.8 67.4403 163.8 67.2697C163.8 67.099 163.85 66.9414 163.946 66.797L164.535 65.9566C164.579 65.8821 164.601 65.8121 164.601 65.7465V61.9121C164.601 61.3124 164.771 60.8419 165.112 60.5006C165.454 60.1547 165.926 59.9819 166.529 59.9819H167.46V61.6626H166.66C166.555 61.6626 166.466 61.6999 166.39 61.7742C166.316 61.8487 166.28 61.9384 166.28 62.0434V65.7465C166.28 66.1754 166.153 66.5694 165.899 66.9283L165.65 67.2697L165.899 67.6111C166.153 67.97 166.28 68.3639 166.28 68.793V72.4959C166.28 72.6053 166.316 72.6973 166.39 72.7717C166.466 72.8505 166.555 72.8899 166.66 72.8899H167.46V74.5576H166.529ZM169.08 71.8V62.3454H174.849V64.1312H170.863V66.1798H174.063V67.9657H170.863V71.8H169.08ZM176.343 63.7243V62.1485H178.126V63.7243H176.343ZM176.343 71.8V64.7091H178.126V71.8H176.343ZM180.269 71.8V64.7091H181.843V66.4424L181.672 66.2192C181.764 65.974 181.887 65.7508 182.039 65.5495C182.192 65.3481 182.38 65.1818 182.604 65.0505C182.774 64.9454 182.961 64.8645 183.16 64.8076C183.361 64.7462 183.569 64.7091 183.784 64.6959C183.999 64.6784 184.213 64.6828 184.427 64.7091V66.3768C184.23 66.3155 184 66.2957 183.738 66.3177C183.48 66.3352 183.246 66.3942 183.036 66.4949C182.827 66.5912 182.649 66.7204 182.505 66.8823C182.361 67.0399 182.252 67.2281 182.178 67.447C182.103 67.6615 182.066 67.9043 182.066 68.1758V71.8H180.269ZM188.362 71.9969C187.471 71.9969 186.749 71.7955 186.199 71.3929C185.652 70.9858 185.32 70.4125 185.201 69.6728L187.025 69.3969C187.098 69.7296 187.263 69.9901 187.516 70.1782C187.775 70.3665 188.1 70.4606 188.493 70.4606C188.816 70.4606 189.066 70.3992 189.241 70.2767C189.416 70.1498 189.503 69.9747 189.503 69.7515C189.503 69.6114 189.468 69.4998 189.398 69.4167C189.328 69.3291 189.171 69.2437 188.927 69.1606C188.685 69.0774 188.31 68.968 187.798 68.8323C187.222 68.6834 186.76 68.5171 186.415 68.3333C186.069 68.1495 185.82 67.9306 185.667 67.6768C185.514 67.4185 185.438 67.1077 185.438 66.7444C185.438 66.2892 185.554 65.8953 185.785 65.5626C186.018 65.2256 186.343 64.9674 186.762 64.7878C187.187 64.6041 187.685 64.5121 188.257 64.5121C188.813 64.5121 189.304 64.5975 189.733 64.7682C190.161 64.9389 190.506 65.1818 190.768 65.497C191.035 65.8121 191.199 66.1841 191.26 66.6132L189.438 66.9414C189.407 66.6788 189.294 66.4709 189.097 66.3177C188.9 66.1645 188.634 66.0747 188.296 66.0485C187.969 66.0266 187.704 66.0704 187.503 66.1798C187.306 66.2892 187.209 66.4468 187.209 66.6525C187.209 66.7751 187.25 66.878 187.333 66.9611C187.42 67.0443 187.597 67.1297 187.864 67.2171C188.135 67.3047 188.545 67.4185 189.097 67.5586C189.634 67.6986 190.065 67.8628 190.388 68.051C190.716 68.2349 190.955 68.4581 191.103 68.7207C191.252 68.9789 191.326 69.2919 191.326 69.6595C191.326 70.3861 191.064 70.9573 190.54 71.3732C190.014 71.789 189.289 71.9969 188.362 71.9969ZM197.194 71.8C196.703 71.892 196.223 71.9313 195.751 71.9182C195.284 71.9094 194.863 71.8284 194.492 71.6752C194.125 71.5176 193.845 71.2659 193.653 70.9202C193.477 70.5962 193.387 70.268 193.377 69.9354C193.368 69.5983 193.364 69.2175 193.364 68.793V62.7394H195.147V68.6879C195.147 68.9636 195.15 69.2131 195.154 69.4363C195.163 69.6552 195.208 69.8302 195.291 69.9616C195.45 70.2111 195.7 70.3467 196.045 70.3687C196.392 70.3905 196.773 70.373 197.194 70.3161V71.8ZM192.158 66.0878V64.7091H197.194V66.0878H192.158ZM198.949 71.8V62.3454H200.759L204.864 68.6485V62.3454H206.672V71.8H204.864L200.759 65.497V71.8H198.949ZM210.647 71.9969C210.141 71.9969 209.71 71.9007 209.356 71.7081C209.005 71.5111 208.739 71.2506 208.555 70.9268C208.376 70.5984 208.287 70.2373 208.287 69.8434C208.287 69.5152 208.337 69.2153 208.437 68.944C208.538 68.6725 208.701 68.434 208.922 68.2283C209.151 68.0182 209.454 67.8431 209.835 67.7031C210.097 67.6068 210.409 67.5214 210.771 67.447C211.135 67.3725 211.546 67.3025 212.004 67.2369C212.464 67.1668 212.968 67.0903 213.52 67.007L212.876 67.3616C212.876 66.9414 212.776 66.6328 212.575 66.4358C212.374 66.2389 212.038 66.1404 211.566 66.1404C211.303 66.1404 211.03 66.2039 210.746 66.3308C210.461 66.4578 210.263 66.6832 210.149 67.007L208.536 66.4949C208.715 65.9084 209.052 65.4313 209.545 65.0637C210.04 64.696 210.713 64.5121 211.566 64.5121C212.19 64.5121 212.745 64.6084 213.23 64.8011C213.716 64.9936 214.083 65.3263 214.332 65.799C214.472 66.0616 214.555 66.3242 214.581 66.5869C214.607 66.8495 214.62 67.1428 214.62 67.4667V71.8H213.06V70.3425L213.284 70.6444C212.938 71.1216 212.563 71.4673 212.162 71.6818C211.764 71.892 211.259 71.9969 210.647 71.9969ZM211.027 70.5919C211.355 70.5919 211.63 70.535 211.854 70.4212C212.081 70.303 212.26 70.1695 212.391 70.0207C212.527 69.8718 212.619 69.7471 212.667 69.6464C212.758 69.4538 212.811 69.2306 212.824 68.9767C212.841 68.7185 212.85 68.504 212.85 68.3333L213.374 68.4646C212.846 68.5522 212.418 68.6265 212.09 68.6879C211.762 68.7448 211.498 68.7973 211.297 68.8455C211.096 68.8935 210.918 68.9462 210.765 69.0029C210.591 69.073 210.448 69.1496 210.339 69.2328C210.234 69.3115 210.155 69.3991 210.103 69.4954C210.055 69.5917 210.031 69.699 210.031 69.8171C210.031 69.9792 210.071 70.1192 210.149 70.2373C210.232 70.3512 210.348 70.4387 210.496 70.4999C210.646 70.5613 210.822 70.5919 211.027 70.5919ZM225.027 71.8V67.6111C225.027 67.1428 224.915 66.7795 224.693 66.5212C224.474 66.2586 224.17 66.1273 223.781 66.1273C223.532 66.1273 223.315 66.1863 223.132 66.3046C222.948 66.4184 222.804 66.5803 222.699 66.7904C222.599 66.9961 222.548 67.2346 222.548 67.5061L221.801 67.007C221.801 66.5212 221.915 66.0922 222.142 65.7202C222.373 65.3481 222.682 65.0593 223.066 64.8536C223.455 64.6435 223.886 64.5383 224.358 64.5383C225.167 64.5383 225.777 64.7791 226.188 65.2607C226.603 65.7376 226.811 66.3637 226.811 67.1384V71.8H225.027ZM216.49 71.8V64.7091H218.064V67.0596H218.287V71.8H216.49ZM220.765 71.8V67.6111C220.765 67.1428 220.654 66.7795 220.431 66.5212C220.213 66.2586 219.909 66.1273 219.52 66.1273C219.147 66.1273 218.849 66.2564 218.622 66.5147C218.399 66.7686 218.287 67.099 218.287 67.5061L217.54 66.9807C217.54 66.5169 217.655 66.101 217.887 65.7334C218.118 65.3656 218.428 65.0746 218.818 64.8601C219.211 64.6457 219.651 64.5383 220.136 64.5383C220.691 64.5383 221.146 64.6566 221.5 64.8929C221.858 65.1293 222.123 65.4444 222.293 65.8383C222.464 66.2323 222.548 66.6657 222.548 67.1384V71.8H220.765ZM231.857 71.9969C231.13 71.9969 230.491 71.8415 229.935 71.5307C229.385 71.2156 228.952 70.7845 228.638 70.2373C228.326 69.6859 228.172 69.0556 228.172 68.3465C228.172 67.5717 228.325 66.8976 228.631 66.3242C228.936 65.7508 229.358 65.3065 229.896 64.9914C230.434 64.6719 231.053 64.5121 231.752 64.5121C232.494 64.5121 233.126 64.6872 233.646 65.0374C234.167 65.3875 234.551 65.8799 234.8 66.5147C235.049 67.1493 235.137 67.8956 235.063 68.7535H233.299V68.0969C233.299 67.3747 233.183 66.856 232.951 66.5409C232.724 66.2214 232.35 66.0616 231.83 66.0616C231.223 66.0616 230.775 66.2476 230.487 66.6197C230.203 66.9874 230.06 67.5323 230.06 68.2545C230.06 68.9155 230.203 69.4276 230.487 69.7909C230.775 70.1498 231.197 70.3292 231.752 70.3292C232.101 70.3292 232.401 70.2527 232.65 70.0995C232.899 69.9463 233.09 69.7253 233.221 69.4363L235.004 69.9485C234.738 70.5962 234.315 71.0996 233.739 71.4586C233.166 71.8175 232.538 71.9969 231.857 71.9969ZM229.51 68.7535V67.4272H234.204V68.7535H229.51ZM236.733 74.5576H235.803V72.8899H236.602C236.707 72.8899 236.797 72.8505 236.871 72.7717C236.946 72.6973 236.983 72.6053 236.983 72.4959V68.793C236.983 68.3639 237.11 67.97 237.363 67.6111L237.612 67.2697L237.363 66.9283C237.11 66.5694 236.983 66.1754 236.983 65.7465V62.0434C236.983 61.9384 236.946 61.8487 236.871 61.7742C236.797 61.6999 236.707 61.6626 236.602 61.6626H235.803V59.9819H236.733C237.337 59.9819 237.809 60.1547 238.15 60.5006C238.49 60.8419 238.662 61.3124 238.662 61.9121V65.7465C238.662 65.8121 238.684 65.8821 238.727 65.9566L239.317 66.797C239.418 66.9414 239.467 67.099 239.467 67.2697C239.467 67.4403 239.418 67.5979 239.317 67.7424L238.727 68.5829C238.684 68.6398 238.662 68.7098 238.662 68.793V72.6273C238.662 73.2313 238.49 73.704 238.15 74.0454C237.809 74.3869 237.337 74.5576 236.733 74.5576ZM264.225 71.8V62.3454H265.804V71.8H264.225ZM271.9 71.8C271.481 71.8831 271.066 71.916 270.655 71.8984C270.249 71.8853 269.885 71.8044 269.566 71.6555C269.247 71.5023 269.004 71.2659 268.838 70.9464C268.698 70.6663 268.621 70.384 268.608 70.0995C268.601 69.8106 268.595 69.4845 268.595 69.1212V62.7394H269.763V69.0687C269.763 69.3575 269.765 69.6048 269.77 69.8106C269.778 70.0163 269.824 70.1936 269.907 70.3425C270.064 70.6225 270.313 70.7867 270.655 70.8348C271 70.883 271.415 70.8699 271.9 70.7954V71.8ZM267.16 65.6742V64.7091H271.9V65.6742H267.16ZM273.582 65.3L273.653 64.7551C273.838 64.7682 273.975 64.7331 274.066 64.65C274.158 64.5668 274.218 64.453 274.244 64.3086C274.27 64.1641 274.274 64.0044 274.257 63.8293H273.582V62.3454H274.867V64.0263C274.867 64.4858 274.752 64.8316 274.525 65.0637C274.302 65.2956 273.988 65.3743 273.582 65.3ZM278.495 71.9903C277.651 71.9903 276.958 71.8066 276.416 71.4389C275.879 71.0669 275.549 70.5481 275.426 69.8827L276.62 69.6924C276.716 70.0776 276.936 70.384 277.281 70.6116C277.627 70.8348 278.055 70.9464 278.567 70.9464C279.053 70.9464 279.433 70.8457 279.708 70.6444C279.983 70.443 280.121 70.1695 280.121 69.8238C280.121 69.6224 280.075 69.4605 279.983 69.3379C279.891 69.211 279.701 69.0927 279.412 68.9833C279.128 68.8739 278.698 68.7426 278.121 68.5894C277.496 68.423 277.004 68.2501 276.646 68.0707C276.287 67.8912 276.032 67.6833 275.879 67.447C275.726 67.2106 275.649 66.9238 275.649 66.5869C275.649 66.171 275.763 65.8077 275.99 65.497C276.217 65.1818 276.534 64.9389 276.94 64.7682C277.352 64.5975 277.828 64.5121 278.37 64.5121C278.907 64.5121 279.389 64.5975 279.813 64.7682C280.236 64.9389 280.577 65.1818 280.836 65.497C281.098 65.8077 281.253 66.171 281.301 66.5869L280.108 66.8035C280.05 66.4227 279.868 66.1229 279.557 65.904C279.251 65.6852 278.855 65.5691 278.37 65.556C277.911 65.5386 277.537 65.6195 277.249 65.799C276.965 65.9784 276.823 66.2214 276.823 66.5278C276.823 66.6985 276.875 66.8451 276.98 66.9676C277.089 67.0903 277.288 67.2062 277.577 67.3156C277.869 67.4251 278.294 67.5499 278.849 67.6899C279.474 67.8474 279.966 68.0204 280.324 68.2085C280.686 68.3924 280.944 68.6113 281.098 68.8651C281.251 69.1146 281.327 69.4232 281.327 69.7909C281.327 70.4737 281.076 71.0122 280.573 71.406C280.07 71.7955 279.377 71.9903 278.495 71.9903ZM287.262 71.8L285.098 64.7026L286.259 64.7091L287.84 69.896L289.432 64.7091H290.462L292.049 69.896L293.635 64.7091H294.79L292.625 71.8H291.655L289.945 66.4095L288.233 71.8H287.262ZM297.768 71.9969C297.238 71.9969 296.794 71.9007 296.436 71.7081C296.082 71.5111 295.813 71.2528 295.629 70.9333C295.45 70.6138 295.361 70.2636 295.361 69.8827C295.361 69.5107 295.431 69.189 295.571 68.9177C295.715 68.6419 295.916 68.4143 296.174 68.2349C296.432 68.051 296.74 67.9065 297.098 67.8016C297.435 67.7096 297.81 67.6308 298.226 67.5651C298.646 67.4952 299.07 67.4316 299.499 67.3747C299.927 67.3178 300.326 67.2631 300.698 67.2106L300.278 67.4535C300.291 66.8233 300.164 66.3571 299.898 66.0551C299.636 65.753 299.181 65.602 298.534 65.602C298.106 65.602 297.73 65.7005 297.407 65.8975C297.088 66.09 296.862 66.4053 296.731 66.8429L295.623 66.508C295.794 65.8866 296.124 65.3985 296.613 65.0439C297.103 64.6895 297.748 64.5121 298.547 64.5121C299.19 64.5121 299.741 64.6281 300.199 64.8601C300.662 65.0877 300.995 65.4335 301.196 65.8975C301.297 66.1163 301.361 66.3548 301.387 66.6132C301.413 66.8671 301.425 67.1339 301.425 67.4141V71.8H300.39V70.0995L300.633 70.2571C300.365 70.8305 299.992 71.2638 299.512 71.5571C299.035 71.8504 298.454 71.9969 297.768 71.9969ZM297.944 71.0187C298.364 71.0187 298.727 70.9442 299.033 70.7954C299.343 70.6422 299.592 70.443 299.78 70.198C299.968 69.9485 300.09 69.6771 300.147 69.3838C300.212 69.165 300.247 68.922 300.252 68.655C300.26 68.3837 300.265 68.1758 300.265 68.0313L300.672 68.2085C300.291 68.2611 299.918 68.3114 299.55 68.3596C299.183 68.4077 298.835 68.4602 298.508 68.5171C298.18 68.5697 297.886 68.6331 297.624 68.7076C297.43 68.7688 297.249 68.8477 297.079 68.944C296.912 69.0402 296.778 69.165 296.672 69.3182C296.571 69.467 296.522 69.653 296.522 69.8763C296.522 70.0688 296.57 70.2527 296.666 70.4277C296.766 70.6029 296.919 70.7451 297.124 70.8545C297.334 70.9639 297.608 71.0187 297.944 71.0187ZM305.984 71.9903C305.14 71.9903 304.448 71.8066 303.905 71.4389C303.368 71.0669 303.037 70.5481 302.915 69.8827L304.109 69.6924C304.205 70.0776 304.425 70.384 304.771 70.6116C305.116 70.8348 305.544 70.9464 306.055 70.9464C306.541 70.9464 306.921 70.8457 307.197 70.6444C307.472 70.443 307.61 70.1695 307.61 69.8238C307.61 69.6224 307.564 69.4605 307.472 69.3379C307.38 69.211 307.189 69.0927 306.901 68.9833C306.617 68.8739 306.186 68.7426 305.61 68.5894C304.985 68.423 304.493 68.2501 304.135 68.0707C303.777 67.8912 303.521 67.6833 303.368 67.447C303.215 67.2106 303.138 66.9238 303.138 66.5869C303.138 66.171 303.251 65.8077 303.48 65.497C303.707 65.1818 304.023 64.9389 304.429 64.7682C304.841 64.5975 305.317 64.5121 305.859 64.5121C306.396 64.5121 306.878 64.5975 307.301 64.7682C307.725 64.9389 308.066 65.1818 308.325 65.497C308.587 65.8077 308.741 66.171 308.789 66.5869L307.597 66.8035C307.54 66.4227 307.357 66.1229 307.045 65.904C306.74 65.6852 306.345 65.5691 305.859 65.556C305.4 65.5386 305.026 65.6195 304.738 65.799C304.454 65.9784 304.311 66.2214 304.311 66.5278C304.311 66.6985 304.365 66.8451 304.47 66.9676C304.579 67.0903 304.777 67.2062 305.065 67.3156C305.358 67.4251 305.783 67.5499 306.338 67.6899C306.962 67.8474 307.454 68.0204 307.813 68.2085C308.175 68.3924 308.434 68.6113 308.587 68.8651C308.74 69.1146 308.816 69.4232 308.816 69.7909C308.816 70.4737 308.565 71.0122 308.063 71.406C307.559 71.7955 306.866 71.9903 305.984 71.9903ZM131.144 94.0861C130.48 94.0861 129.921 93.922 129.466 93.5937C129.012 93.261 128.666 92.8123 128.43 92.2478C128.199 91.6786 128.083 91.0418 128.083 90.3372C128.083 89.6237 128.199 88.9846 128.43 88.42C128.666 87.8553 129.012 87.411 129.466 87.0871C129.925 86.7633 130.486 86.6013 131.151 86.6013C131.807 86.6013 132.371 86.7654 132.843 87.0937C133.319 87.4177 133.685 87.8619 133.938 88.4265C134.191 88.9912 134.318 89.628 134.318 90.3372C134.318 91.0463 134.191 91.6831 133.938 92.2478C133.685 92.8123 133.319 93.261 132.843 93.5937C132.371 93.922 131.805 94.0861 131.144 94.0861ZM127.886 97.0406V86.7982H128.929V92.0179H129.06V97.0406H127.886ZM131 93.016C131.469 93.016 131.855 92.8977 132.162 92.6614C132.467 92.425 132.696 92.1055 132.849 91.7028C133.002 91.2957 133.079 90.8406 133.079 90.3372C133.079 89.8381 133.002 89.3874 132.849 88.9846C132.701 88.5819 132.469 88.2624 132.155 88.026C131.844 87.7897 131.449 87.6715 130.968 87.6715C130.509 87.6715 130.129 87.7852 129.827 88.0129C129.525 88.2361 129.3 88.5491 129.152 88.9518C129.003 89.3501 128.929 89.8119 128.929 90.3372C128.929 90.8537 129.001 91.3155 129.145 91.7224C129.294 92.1251 129.521 92.4425 129.827 92.6745C130.133 92.9021 130.524 93.016 131 93.016ZM136.065 93.8891V84.2377H137.231V93.8891H136.065ZM142.445 94.0861C141.751 94.0861 141.143 93.9329 140.623 93.6265C140.107 93.3157 139.704 92.8846 139.416 92.3331C139.128 91.7771 138.983 91.1294 138.983 90.3897C138.983 89.6149 139.126 88.9452 139.41 88.3806C139.694 87.8116 140.09 87.3739 140.596 87.0675C141.108 86.7567 141.707 86.6013 142.393 86.6013C143.105 86.6013 143.711 86.7654 144.21 87.0937C144.712 87.4219 145.088 87.8904 145.337 88.4987C145.59 89.1072 145.699 89.8316 145.664 90.672H144.485V90.2518C144.472 89.3807 144.294 88.7308 143.954 88.3017C143.613 87.8684 143.105 87.6518 142.432 87.6518C141.711 87.6518 141.163 87.8837 140.787 88.3477C140.41 88.8117 140.222 89.477 140.222 90.3437C140.222 91.1797 140.41 91.8276 140.787 92.2871C141.163 92.7467 141.698 92.9766 142.393 92.9766C142.86 92.9766 143.268 92.8693 143.613 92.6549C143.958 92.4403 144.229 92.1317 144.425 91.7291L145.546 92.1164C145.271 92.7423 144.856 93.2281 144.3 93.574C143.75 93.9154 143.131 94.0861 142.445 94.0861ZM139.829 90.672V89.7331H145.062V90.672H139.829ZM149.187 94.0861C148.658 94.0861 148.215 93.9898 147.856 93.7973C147.502 93.6003 147.233 93.342 147.05 93.0224C146.871 92.7029 146.781 92.3528 146.781 91.9719C146.781 91.5999 146.851 91.2782 146.99 91.0069C147.136 90.731 147.336 90.5035 147.594 90.3241C147.852 90.1402 148.159 89.9957 148.519 89.8907C148.855 89.7987 149.231 89.72 149.646 89.6542C150.066 89.5843 150.49 89.5208 150.918 89.4639C151.346 89.407 151.746 89.3523 152.118 89.2998L151.698 89.5426C151.711 88.9124 151.585 88.4462 151.318 88.1443C151.056 87.8422 150.602 87.6912 149.954 87.6912C149.526 87.6912 149.15 87.7897 148.826 87.9866C148.507 88.1792 148.283 88.4944 148.152 88.9321L147.044 88.5972C147.214 87.9757 147.543 87.4877 148.034 87.1331C148.523 86.7786 149.168 86.6013 149.967 86.6013C150.611 86.6013 151.161 86.7173 151.62 86.9492C152.083 87.1769 152.416 87.5226 152.617 87.9866C152.717 88.2055 152.78 88.444 152.806 88.7023C152.833 88.9562 152.846 89.2231 152.846 89.5033V93.8891H151.81V92.1886L152.052 92.3463C151.786 92.9197 151.412 93.353 150.931 93.6463C150.455 93.9395 149.874 94.0861 149.187 94.0861ZM149.365 93.1078C149.784 93.1078 150.147 93.0334 150.452 92.8846C150.762 92.7314 151.013 92.5322 151.2 92.2871C151.388 92.0377 151.511 91.7662 151.567 91.473C151.633 91.2542 151.668 91.0112 151.672 90.7442C151.681 90.4728 151.685 90.2649 151.685 90.1205L152.092 90.2977C151.711 90.3503 151.337 90.4006 150.971 90.4488C150.604 90.4969 150.256 90.5494 149.928 90.6063C149.6 90.6589 149.305 90.7223 149.043 90.7968C148.851 90.858 148.669 90.9368 148.499 91.0331C148.333 91.1294 148.197 91.2542 148.092 91.4073C147.992 91.5561 147.941 91.7422 147.941 91.9654C147.941 92.158 147.989 92.3418 148.085 92.5169C148.187 92.692 148.34 92.8343 148.545 92.9437C148.755 93.0531 149.028 93.1078 149.365 93.1078ZM157.403 94.0795C156.56 94.0795 155.867 93.8958 155.325 93.528C154.787 93.156 154.458 92.6373 154.335 91.9719L155.528 91.7816C155.624 92.1668 155.845 92.4732 156.19 92.7007C156.535 92.924 156.965 93.0356 157.476 93.0356C157.961 93.0356 158.342 92.9349 158.617 92.7336C158.892 92.5322 159.029 92.2587 159.029 91.9129C159.029 91.7115 158.984 91.5496 158.892 91.4271C158.8 91.3001 158.61 91.1819 158.322 91.0725C158.038 90.9631 157.607 90.8317 157.03 90.6785C156.404 90.5122 155.912 90.3393 155.554 90.1598C155.196 89.9804 154.941 89.7725 154.787 89.5361C154.634 89.2998 154.558 89.013 154.558 88.6761C154.558 88.2602 154.672 87.8969 154.899 87.5862C155.126 87.2709 155.443 87.0281 155.85 86.8574C156.26 86.6866 156.736 86.6013 157.279 86.6013C157.816 86.6013 158.297 86.6866 158.722 86.8574C159.146 87.0281 159.486 87.2709 159.744 87.5862C160.006 87.8969 160.162 88.2602 160.21 88.6761L159.016 88.8927C158.959 88.5118 158.776 88.2121 158.466 87.9931C158.16 87.7743 157.764 87.6583 157.279 87.6452C156.819 87.6278 156.446 87.7087 156.158 87.8881C155.874 88.0676 155.732 88.3106 155.732 88.617C155.732 88.7877 155.784 88.9343 155.889 89.0568C155.998 89.1795 156.197 89.2954 156.486 89.4048C156.778 89.5143 157.202 89.639 157.758 89.7791C158.383 89.9366 158.875 90.1095 159.233 90.2977C159.596 90.4815 159.853 90.7005 160.006 90.9543C160.159 91.2037 160.236 91.5123 160.236 91.8801C160.236 92.5629 159.984 93.1013 159.482 93.4952C158.98 93.8847 158.287 94.0795 157.403 94.0795ZM164.548 94.073C164.094 94.073 163.702 94.0007 163.375 93.8563C163.052 93.7119 162.782 93.5193 162.568 93.2786C162.354 93.0378 162.186 92.7708 162.063 92.4775C161.941 92.1842 161.854 91.8845 161.801 91.5781C161.753 91.2717 161.73 90.9849 161.73 90.7179V86.7982H162.909V90.3503C162.909 90.683 162.94 91.0047 163.001 91.3155C163.062 91.6262 163.165 91.9063 163.309 92.1558C163.458 92.4053 163.654 92.6022 163.899 92.7467C164.148 92.8912 164.458 92.9633 164.831 92.9633C165.123 92.9633 165.39 92.913 165.63 92.8123C165.87 92.7116 166.076 92.5629 166.246 92.3659C166.416 92.1646 166.547 91.9107 166.64 91.6043C166.732 91.2979 166.777 90.9411 166.777 90.534L167.545 90.7705C167.545 91.4533 167.419 92.042 167.17 92.5366C166.926 93.0313 166.579 93.412 166.128 93.679C165.682 93.9416 165.156 94.073 164.548 94.073ZM166.908 93.8891V91.9917H166.777V86.7982H167.951V93.8891H166.908ZM169.965 93.8891V86.7982H171.007V88.5118L170.837 88.2886C170.92 88.0698 171.027 87.8684 171.158 87.6847C171.294 87.5008 171.445 87.3498 171.611 87.2316C171.794 87.0828 172.001 86.969 172.233 86.8902C172.466 86.8114 172.701 86.7654 172.942 86.7522C173.182 86.7348 173.406 86.7502 173.617 86.7982V87.8948C173.373 87.829 173.103 87.8116 172.811 87.8421C172.518 87.8728 172.246 87.98 171.997 88.1639C171.77 88.3259 171.592 88.5229 171.467 88.7548C171.343 88.9868 171.259 89.2384 171.211 89.5099C171.163 89.7769 171.138 90.0504 171.138 90.3306V93.8891H169.965ZM177.975 94.0861C177.28 94.0861 176.672 93.9329 176.152 93.6265C175.637 93.3157 175.235 92.8846 174.945 92.3331C174.657 91.7771 174.513 91.1294 174.513 90.3897C174.513 89.6149 174.655 88.9452 174.939 88.3806C175.223 87.8116 175.619 87.3739 176.126 87.0675C176.637 86.7567 177.237 86.6013 177.922 86.6013C178.636 86.6013 179.24 86.7654 179.739 87.0937C180.242 87.4219 180.617 87.8904 180.866 88.4987C181.121 89.1072 181.23 89.8316 181.195 90.672H180.014V90.2518C180.001 89.3807 179.824 88.7308 179.483 88.3017C179.142 87.8684 178.636 87.6518 177.962 87.6518C177.241 87.6518 176.692 87.8837 176.316 88.3477C175.941 88.8117 175.752 89.477 175.752 90.3437C175.752 91.1797 175.941 91.8276 176.316 92.2871C176.692 92.7467 177.228 92.9766 177.922 92.9766C178.39 92.9766 178.797 92.8693 179.142 92.6549C179.487 92.4403 179.758 92.1317 179.955 91.7291L181.076 92.1164C180.801 92.7423 180.386 93.2281 179.831 93.574C179.279 93.9154 178.662 94.0861 177.975 94.0861ZM175.359 90.672V89.7331H180.591V90.672H175.359ZM189.589 93.8891C189.169 93.9723 188.754 94.0052 188.343 93.9876C187.937 93.9745 187.573 93.8935 187.254 93.7446C186.935 93.5914 186.692 93.3551 186.526 93.0356C186.387 92.7554 186.311 92.4732 186.298 92.1886C186.289 91.8998 186.285 91.5737 186.285 91.2104V84.8285H187.451V91.1579C187.451 91.4467 187.454 91.694 187.458 91.8998C187.467 92.1055 187.512 92.2827 187.595 92.4316C187.752 92.7116 188.002 92.8759 188.343 92.924C188.688 92.9722 189.103 92.959 189.589 92.8846V93.8891ZM184.848 87.7634V86.7982H189.589V87.7634H184.848ZM193.926 94.0861C193.222 94.0861 192.614 93.9263 192.103 93.6068C191.596 93.2873 191.205 92.8452 190.929 92.2805C190.654 91.7159 190.516 91.0681 190.516 90.3372C190.516 89.593 190.656 88.9409 190.937 88.3806C191.216 87.8203 191.611 87.3848 192.123 87.074C192.634 86.7589 193.235 86.6013 193.926 86.6013C194.634 86.6013 195.243 86.7611 195.755 87.0806C196.267 87.3957 196.658 87.8357 196.929 88.4002C197.204 88.9605 197.342 89.6062 197.342 90.3372C197.342 91.0769 197.204 91.7291 196.929 92.2936C196.654 92.8539 196.261 93.2939 195.748 93.6134C195.237 93.9285 194.63 94.0861 193.926 94.0861ZM193.926 92.9766C194.661 92.9766 195.207 92.7314 195.565 92.2411C195.923 91.7509 196.102 91.1163 196.102 90.3372C196.102 89.5361 195.921 88.8993 195.559 88.4265C195.195 87.9495 194.652 87.7109 193.926 87.7109C193.432 87.7109 193.026 87.8225 192.707 88.0458C192.387 88.269 192.149 88.5776 191.992 88.9714C191.835 89.3654 191.755 89.8207 191.755 90.3372C191.755 91.1338 191.94 91.7729 192.307 92.2543C192.674 92.7358 193.214 92.9766 193.926 92.9766ZM210.232 93.8891L210.238 89.3523C210.238 88.8226 210.095 88.4091 209.811 88.1114C209.532 87.8094 209.166 87.6583 208.716 87.6583C208.454 87.6583 208.205 87.7196 207.969 87.8421C207.733 87.9604 207.541 88.1485 207.393 88.4069C207.243 88.6607 207.169 88.9868 207.169 89.3851L206.553 89.1357C206.544 88.6323 206.646 88.1923 206.861 87.8159C207.08 87.4351 207.377 87.1397 207.753 86.9296C208.128 86.7195 208.553 86.6144 209.025 86.6144C209.763 86.6144 210.345 86.8398 210.769 87.2907C211.193 87.7372 211.405 88.339 211.405 89.0962L211.398 93.8891H210.232ZM201.76 93.8891V86.7982H202.803V88.6957H202.934V93.8891H201.76ZM206.002 93.8891L206.008 89.3983C206.008 88.8555 205.869 88.4309 205.589 88.1245C205.309 87.8137 204.938 87.6583 204.474 87.6583C204.015 87.6583 203.644 87.8159 203.36 88.1311C203.076 88.4462 202.934 88.8642 202.934 89.3851L202.318 89.0174C202.318 88.5578 202.427 88.1465 202.645 87.7832C202.864 87.4199 203.161 87.1353 203.536 86.9296C203.913 86.7195 204.339 86.6144 204.816 86.6144C205.292 86.6144 205.707 86.7151 206.061 86.9165C206.416 87.1178 206.688 87.4067 206.88 87.7832C207.073 88.1552 207.169 88.5994 207.169 89.1159L207.163 93.8891H206.002ZM216.295 94.0861C215.6 94.0861 214.993 93.9329 214.472 93.6265C213.957 93.3157 213.555 92.8846 213.265 92.3331C212.977 91.7771 212.833 91.1294 212.833 90.3897C212.833 89.6149 212.975 88.9452 213.259 88.3806C213.543 87.8116 213.939 87.3739 214.446 87.0675C214.957 86.7567 215.556 86.6013 216.242 86.6013C216.954 86.6013 217.56 86.7654 218.059 87.0937C218.561 87.4219 218.937 87.8904 219.186 88.4987C219.439 89.1072 219.55 89.8316 219.515 90.672H218.334V90.2518C218.321 89.3807 218.144 88.7308 217.803 88.3017C217.462 87.8684 216.954 87.6518 216.282 87.6518C215.561 87.6518 215.012 87.8837 214.636 88.3477C214.261 88.8117 214.073 89.477 214.073 90.3437C214.073 91.1797 214.261 91.8276 214.636 92.2871C215.012 92.7467 215.548 92.9766 216.242 92.9766C216.711 92.9766 217.117 92.8693 217.462 92.6549C217.807 92.4403 218.078 92.1317 218.275 91.7291L219.396 92.1164C219.121 92.7423 218.706 93.2281 218.151 93.574C217.599 93.9154 216.982 94.0861 216.295 94.0861ZM213.679 90.672V89.7331H218.911V90.672H213.679ZM224.221 94.0861C223.525 94.0861 222.918 93.9329 222.398 93.6265C221.881 93.3157 221.48 92.8846 221.191 92.3331C220.903 91.7771 220.759 91.1294 220.759 90.3897C220.759 89.6149 220.9 88.9452 221.185 88.3806C221.469 87.8116 221.864 87.3739 222.372 87.0675C222.883 86.7567 223.481 86.6013 224.168 86.6013C224.88 86.6013 225.486 86.7654 225.984 87.0937C226.486 87.4219 226.863 87.8904 227.112 88.4987C227.365 89.1072 227.475 89.8316 227.44 90.672H226.259V90.2518C226.246 89.3807 226.07 88.7308 225.729 88.3017C225.387 87.8684 224.88 87.6518 224.208 87.6518C223.486 87.6518 222.938 87.8837 222.561 88.3477C222.186 88.8117 221.998 89.477 221.998 90.3437C221.998 91.1797 222.186 91.8276 222.561 92.2871C222.938 92.7467 223.473 92.9766 224.168 92.9766C224.636 92.9766 225.042 92.8693 225.387 92.6549C225.733 92.4403 226.004 92.1317 226.201 91.7291L227.322 92.1164C227.046 92.7423 226.63 93.2281 226.076 93.574C225.525 93.9154 224.907 94.0861 224.221 94.0861ZM221.605 90.672V89.7331H226.837V90.672H221.605ZM233.031 93.8891C232.611 93.9723 232.196 94.0052 231.786 93.9876C231.378 93.9745 231.016 93.8935 230.697 93.7446C230.378 93.5914 230.135 93.3551 229.969 93.0356C229.829 92.7554 229.752 92.4732 229.739 92.1886C229.73 91.8998 229.727 91.5737 229.727 91.2104V84.8285H230.893V91.1579C230.893 91.4467 230.896 91.694 230.901 91.8998C230.909 92.1055 230.955 92.2827 231.038 92.4316C231.195 92.7116 231.444 92.8759 231.786 92.924C232.131 92.9722 232.546 92.959 233.031 92.8846V93.8891ZM228.29 87.7634V86.7982H233.031V87.7634H228.29ZM238.433 97.0406L239.803 93.3114L239.823 94.4143L236.728 86.7982H237.954L240.381 92.924H239.961L242.236 86.7982H243.422L239.567 97.0406H238.433ZM247.444 94.0861C246.74 94.0861 246.132 93.9263 245.621 93.6068C245.114 93.2873 244.723 92.8452 244.448 92.2805C244.172 91.7159 244.035 91.0681 244.035 90.3372C244.035 89.593 244.174 88.9409 244.454 88.3806C244.733 87.8203 245.129 87.3848 245.64 87.074C246.153 86.7589 246.753 86.6013 247.444 86.6013C248.152 86.6013 248.762 86.7611 249.273 87.0806C249.784 87.3957 250.175 87.8357 250.446 88.4002C250.723 88.9605 250.86 89.6062 250.86 90.3372C250.86 91.0769 250.723 91.7291 250.446 92.2936C250.171 92.8539 249.778 93.2939 249.267 93.6134C248.755 93.9285 248.147 94.0861 247.444 94.0861ZM247.444 92.9766C248.178 92.9766 248.724 92.7314 249.082 92.2411C249.442 91.7509 249.621 91.1163 249.621 90.3372C249.621 89.5361 249.439 88.8993 249.076 88.4265C248.714 87.9495 248.169 87.7109 247.444 87.7109C246.949 87.7109 246.543 87.8225 246.224 88.0458C245.905 88.269 245.667 88.5776 245.509 88.9714C245.352 89.3654 245.274 89.8207 245.274 90.3372C245.274 91.1338 245.457 91.7729 245.824 92.2543C246.191 92.7358 246.731 92.9766 247.444 92.9766ZM255.169 94.073C254.715 94.073 254.323 94.0007 253.996 93.8563C253.672 93.7119 253.403 93.5193 253.189 93.2786C252.975 93.0378 252.807 92.7708 252.685 92.4775C252.563 92.1842 252.474 91.8845 252.422 91.5781C252.374 91.2717 252.35 90.9849 252.35 90.7179V86.7982H253.531V90.3503C253.531 90.683 253.56 91.0047 253.623 91.3155C253.684 91.6262 253.786 91.9063 253.93 92.1558C254.079 92.4053 254.275 92.6022 254.521 92.7467C254.77 92.8912 255.08 92.9633 255.451 92.9633C255.744 92.9633 256.01 92.913 256.252 92.8123C256.492 92.7116 256.697 92.5629 256.868 92.3659C257.038 92.1646 257.169 91.9107 257.261 91.6043C257.353 91.2979 257.399 90.9411 257.399 90.534L258.166 90.7705C258.166 91.4533 258.041 92.042 257.792 92.5366C257.548 93.0313 257.2 93.412 256.75 93.679C256.303 93.9416 255.777 94.073 255.169 94.073ZM257.53 93.8891V91.9917H257.399V86.7982H258.572V93.8891H257.53ZM265.402 94.0861C264.873 94.0861 264.429 93.9898 264.071 93.7973C263.717 93.6003 263.448 93.342 263.265 93.0224C263.086 92.7029 262.995 92.3528 262.995 91.9719C262.995 91.5999 263.065 91.2782 263.205 91.0069C263.349 90.731 263.55 90.5035 263.809 90.3241C264.067 90.1402 264.374 89.9957 264.734 89.8907C265.07 89.7987 265.446 89.72 265.861 89.6542C266.281 89.5843 266.705 89.5208 267.133 89.4639C267.561 89.407 267.961 89.3523 268.333 89.2998L267.913 89.5426C267.926 88.9124 267.8 88.4462 267.533 88.1443C267.271 87.8422 266.816 87.6912 266.169 87.6912C265.741 87.6912 265.364 87.7897 265.041 87.9866C264.722 88.1792 264.498 88.4944 264.367 88.9321L263.258 88.5972C263.428 87.9757 263.758 87.4877 264.249 87.1331C264.738 86.7786 265.383 86.6013 266.182 86.6013C266.824 86.6013 267.376 86.7173 267.835 86.9492C268.298 87.1769 268.63 87.5226 268.832 87.9866C268.932 88.2055 268.995 88.444 269.021 88.7023C269.047 88.9562 269.06 89.2231 269.06 89.5033V93.8891H268.025V92.1886L268.267 92.3463C268.001 92.9197 267.627 93.353 267.146 93.6463C266.67 93.9395 266.089 94.0861 265.402 94.0861ZM265.579 93.1078C265.999 93.1078 266.361 93.0334 266.667 92.8846C266.977 92.7314 267.227 92.5322 267.415 92.2871C267.603 92.0377 267.725 91.7662 267.782 91.473C267.848 91.2542 267.883 91.0112 267.887 90.7442C267.896 90.4728 267.9 90.2649 267.9 90.1205L268.306 90.2977C267.926 90.3503 267.552 90.4006 267.185 90.4488C266.818 90.4969 266.471 90.5494 266.143 90.6063C265.815 90.6589 265.52 90.7223 265.258 90.7968C265.066 90.858 264.884 90.9368 264.713 91.0331C264.547 91.1294 264.412 91.2542 264.307 91.4073C264.207 91.5561 264.156 91.7422 264.156 91.9654C264.156 92.158 264.204 92.3418 264.3 92.5169C264.4 92.692 264.553 92.8343 264.76 92.9437C264.969 93.0531 265.243 93.1078 265.579 93.1078ZM274.896 93.8891C274.477 93.9723 274.062 94.0052 273.651 93.9876C273.245 93.9745 272.881 93.8935 272.562 93.7446C272.244 93.5914 272.002 93.3551 271.835 93.0356C271.695 92.7554 271.619 92.4732 271.606 92.1886C271.597 91.8998 271.593 91.5737 271.593 91.2104V84.8285H272.759V91.1579C272.759 91.4467 272.762 91.694 272.766 91.8998C272.775 92.1055 272.82 92.2827 272.903 92.4316C273.06 92.7116 273.31 92.8759 273.651 92.924C273.996 92.9722 274.411 92.959 274.896 92.8846V93.8891ZM270.156 87.7634V86.7982H274.896V87.7634H270.156ZM281.623 93.8891L278.464 84.4346H279.677L282.424 92.6482L285.197 84.4346H286.41L283.249 93.8891H281.623ZM287.449 85.5442V84.3361H288.616V85.5442H287.449ZM287.449 93.8891V86.7982H288.616V93.8891H287.449ZM292.676 93.8891L290.105 86.7982H291.286L293.273 92.3988L295.253 86.7982H296.439L293.87 93.8891H292.676ZM299.419 94.0861C298.89 94.0861 298.446 93.9898 298.088 93.7973C297.734 93.6003 297.465 93.342 297.282 93.0224C297.102 92.7029 297.012 92.3528 297.012 91.9719C297.012 91.5999 297.082 91.2782 297.223 91.0069C297.367 90.731 297.568 90.5035 297.826 90.3241C298.084 90.1402 298.392 89.9957 298.75 89.8907C299.087 89.7987 299.462 89.72 299.879 89.6542C300.298 89.5843 300.722 89.5208 301.15 89.4639C301.579 89.407 301.978 89.3523 302.349 89.2998L301.93 89.5426C301.943 88.9124 301.817 88.4462 301.55 88.1443C301.288 87.8422 300.834 87.6912 300.186 87.6912C299.758 87.6912 299.382 87.7897 299.059 87.9866C298.739 88.1792 298.514 88.4944 298.383 88.9321L297.275 88.5972C297.446 87.9757 297.775 87.4877 298.265 87.1331C298.755 86.7786 299.4 86.6013 300.199 86.6013C300.842 86.6013 301.393 86.7173 301.851 86.9492C302.316 87.1769 302.648 87.5226 302.849 87.9866C302.949 88.2055 303.012 88.444 303.038 88.7023C303.064 88.9562 303.077 89.2231 303.077 89.5033V93.8891H302.042V92.1886L302.284 92.3463C302.017 92.9197 301.643 93.353 301.163 93.6463C300.687 93.9395 300.106 94.0861 299.419 94.0861ZM299.596 93.1078C300.016 93.1078 300.378 93.0334 300.685 92.8846C300.995 92.7314 301.244 92.5322 301.432 92.2871C301.62 92.0377 301.742 91.7662 301.799 91.473C301.865 91.2542 301.9 91.0112 301.904 90.7442C301.913 90.4728 301.917 90.2649 301.917 90.1205L302.323 90.2977C301.943 90.3503 301.57 90.4006 301.202 90.4488C300.835 90.4969 300.487 90.5494 300.16 90.6063C299.832 90.6589 299.537 90.7223 299.275 90.7968C299.082 90.858 298.902 90.9368 298.73 91.0331C298.564 91.1294 298.429 91.2542 298.324 91.4073C298.223 91.5561 298.174 91.7422 298.174 91.9654C298.174 92.158 298.222 92.3418 298.318 92.5169C298.418 92.692 298.571 92.8343 298.777 92.9437C298.986 93.0531 299.26 93.1078 299.596 93.1078ZM308.914 93.8891C308.495 93.9723 308.079 94.0052 307.668 93.9876C307.262 93.9745 306.899 93.8935 306.579 93.7446C306.26 93.5914 306.018 93.3551 305.852 93.0356C305.713 92.7554 305.636 92.4732 305.623 92.1886C305.614 91.8998 305.609 91.5737 305.609 91.2104V84.8285H306.777V91.1579C306.777 91.4467 306.779 91.694 306.783 91.8998C306.792 92.1055 306.838 92.2827 306.921 92.4316C307.078 92.7116 307.327 92.8759 307.668 92.924C308.013 92.9722 308.428 92.959 308.914 92.8846V93.8891ZM304.174 87.7634V86.7982H308.914V87.7634H304.174ZM313.303 94.0861C312.608 94.0861 312.001 93.9329 311.48 93.6265C310.965 93.3157 310.563 92.8846 310.275 92.3331C309.986 91.7771 309.842 91.1294 309.842 90.3897C309.842 89.6149 309.984 88.9452 310.268 88.3806C310.551 87.8116 310.947 87.3739 311.454 87.0675C311.966 86.7567 312.565 86.6013 313.252 86.6013C313.964 86.6013 314.569 86.7654 315.067 87.0937C315.57 87.4219 315.945 87.8904 316.194 88.4987C316.449 89.1072 316.558 89.8316 316.523 90.672H315.343V90.2518C315.329 89.3807 315.153 88.7308 314.811 88.3017C314.47 87.8684 313.964 87.6518 313.291 87.6518C312.569 87.6518 312.02 87.8837 311.645 88.3477C311.269 88.8117 311.081 89.477 311.081 90.3437C311.081 91.1797 311.269 91.8276 311.645 92.2871C312.02 92.7467 312.556 92.9766 313.252 92.9766C313.719 92.9766 314.125 92.8693 314.47 92.6549C314.816 92.4403 315.086 92.1317 315.284 91.7291L316.405 92.1164C316.13 92.7423 315.714 93.2281 315.159 93.574C314.609 93.9154 313.99 94.0861 313.303 94.0861ZM310.688 90.672V89.7331H315.919V90.672H310.688ZM321.143 94.0861C320.427 94.0861 319.817 93.9263 319.314 93.6068C318.816 93.283 318.435 92.8386 318.173 92.274C317.911 91.7093 317.776 91.0659 317.767 90.3437C317.776 89.604 317.914 88.954 318.18 88.3937C318.451 87.829 318.838 87.3892 319.341 87.074C319.843 86.7589 320.449 86.6013 321.156 86.6013C321.904 86.6013 322.547 86.7851 323.085 87.1528C323.627 87.5204 323.989 88.0238 324.173 88.663L323.018 89.0109C322.871 88.5994 322.628 88.2799 322.292 88.0523C321.96 87.8247 321.577 87.7109 321.143 87.7109C320.658 87.7109 320.259 87.8247 319.945 88.0523C319.629 88.2755 319.396 88.5863 319.242 88.9846C319.089 89.3785 319.01 89.8316 319.006 90.3437C319.015 91.1316 319.197 91.7684 319.55 92.2543C319.909 92.7358 320.44 92.9766 321.143 92.9766C321.607 92.9766 321.992 92.8715 322.298 92.6614C322.603 92.4468 322.836 92.1384 322.993 91.7356L324.173 92.0442C323.928 92.7051 323.545 93.2107 323.025 93.5609C322.506 93.9111 321.878 94.0861 321.143 94.0861ZM330.731 93.8891V90.3372C330.731 90.0001 330.7 89.6762 330.639 89.3654C330.582 89.0546 330.48 88.7767 330.332 88.5316C330.186 88.2821 329.99 88.0851 329.741 87.9406C329.496 87.7963 329.186 87.724 328.81 87.724C328.518 87.724 328.25 87.7743 328.01 87.875C327.774 87.9713 327.57 88.1201 327.4 88.3215C327.23 88.5229 327.097 88.7767 327.001 89.083C326.909 89.3851 326.863 89.7418 326.863 90.1533L326.095 89.917C326.095 89.2297 326.218 88.641 326.462 88.1508C326.711 87.6562 327.059 87.2776 327.505 87.015C327.956 86.748 328.484 86.6144 329.092 86.6144C329.55 86.6144 329.942 86.6866 330.265 86.8311C330.589 86.9755 330.858 87.1682 331.073 87.4088C331.287 87.6452 331.454 87.9122 331.577 88.2099C331.699 88.5031 331.785 88.8029 331.833 89.1094C331.885 89.4114 331.911 89.698 331.911 89.9695V93.8891H330.731ZM325.682 93.8891V84.4346H326.732V89.6542H326.863V93.8891H325.682ZM334.004 93.8891V92.6022H335.288V93.8891H334.004Z" fill="#25213E" fill-opacity="0.78"/>
            <g filter="url(#filter2_d_1399_39079)">
                <path d="M202.563 19.4902H137.684C130.517 19.4902 124.708 25.3077 124.708 32.4839C124.708 39.66 130.517 45.4775 137.684 45.4775H202.563C209.729 45.4775 215.538 39.66 215.538 32.4839C215.538 25.3077 209.729 19.4902 202.563 19.4902Z" fill="#EF3A00"/>
                <path d="M139.126 33.0994H141.32C141.765 33.0994 142.171 33.3719 142.37 33.8031C142.568 34.2345 142.974 34.507 143.419 34.507H147.159C147.604 34.507 148.01 34.2345 148.209 33.8031C148.407 33.3719 148.813 33.0994 149.258 33.0994H151.453M143.321 27.4688H147.258C147.956 27.4688 148.305 27.4688 148.614 27.5841C148.886 27.6863 149.135 27.8528 149.341 28.0718C149.574 28.3194 149.731 28.6583 150.042 29.3363L151.449 32.3861C151.571 32.652 151.632 32.7851 151.676 32.9245C151.713 33.0483 151.742 33.1757 151.758 33.3051C151.777 33.4508 151.777 33.5994 151.777 33.8968V35.3516C151.777 36.5341 151.777 37.1254 151.564 37.577C151.379 37.9744 151.08 38.2974 150.714 38.4998C150.298 38.7299 149.753 38.7299 148.663 38.7299H141.915C140.825 38.7299 140.281 38.7299 139.864 38.4998C139.498 38.2974 139.2 37.9744 139.013 37.577C138.801 37.1254 138.801 36.5341 138.801 35.3516V33.8968C138.801 33.5994 138.801 33.4508 138.819 33.3051C138.836 33.1757 138.865 33.0483 138.902 32.9245C138.947 32.7851 139.008 32.652 139.13 32.3861L140.536 29.3363C140.848 28.6583 141.005 28.3194 141.237 28.0718C141.443 27.8528 141.692 27.6863 141.965 27.5841C142.274 27.4688 142.623 27.4688 143.321 27.4688Z" stroke="white" stroke-width="1.2" stroke-linecap="round" stroke-linejoin="round"/>
                <path d="M164.631 35.7331L162.417 28.7003H163.627L165.48 34.5903L167.357 28.7003H168.567L166.353 35.7331H164.631ZM169.206 29.6575V28.5781H170.382V29.6575H169.206ZM169.206 35.7331V30.4584H170.382V35.7331H169.206ZM173.268 35.7331L171.355 30.4584H172.531L173.858 34.2826L175.179 30.4584H176.36L174.447 35.7331H173.268ZM178.413 35.8796C178.033 35.8796 177.711 35.8079 177.447 35.6647C177.184 35.5182 176.984 35.3244 176.847 35.0835C176.714 34.8426 176.647 34.5772 176.647 34.2874C176.647 34.0335 176.69 33.8056 176.774 33.6037C176.858 33.3985 176.988 33.2227 177.164 33.0763C177.34 32.9264 177.567 32.8043 177.847 32.71C178.058 32.6415 178.305 32.5796 178.588 32.5243C178.875 32.4689 179.183 32.4185 179.514 32.3729C179.849 32.3241 180.199 32.272 180.564 32.2166L180.144 32.4559C180.148 32.0913 180.066 31.8226 179.9 31.6501C179.735 31.4775 179.455 31.3912 179.062 31.3912C178.824 31.3912 178.594 31.4466 178.374 31.5573C178.152 31.668 177.998 31.8585 177.911 32.1288L176.837 31.7917C176.967 31.3456 177.215 30.9875 177.578 30.7173C177.946 30.447 178.44 30.3119 179.062 30.3119C179.53 30.3119 179.941 30.3884 180.296 30.5415C180.652 30.6945 180.918 30.9452 181.09 31.2935C181.184 31.4792 181.241 31.6697 181.261 31.865C181.28 32.0572 181.291 32.2671 181.291 32.4951V35.7331H180.26V34.5903L180.432 34.7758C180.194 35.1568 179.917 35.4368 179.597 35.6159C179.282 35.7917 178.888 35.8796 178.413 35.8796ZM178.646 34.9419C178.914 34.9419 179.141 34.8947 179.33 34.8003C179.518 34.7058 179.667 34.5903 179.778 34.4535C179.892 34.3168 179.969 34.1881 180.007 34.0677C180.07 33.9179 180.103 33.747 180.11 33.5548C180.119 33.3595 180.124 33.2015 180.124 33.0811L180.485 33.1885C180.131 33.2439 179.827 33.2927 179.573 33.3351C179.32 33.3775 179.102 33.4181 178.92 33.4571C178.737 33.493 178.576 33.5336 178.437 33.5792C178.3 33.6281 178.186 33.6851 178.091 33.7502C177.996 33.8153 177.924 33.8902 177.872 33.9749C177.822 34.0595 177.798 34.1588 177.798 34.2727C177.798 34.403 177.83 34.5186 177.895 34.6195C177.961 34.7172 178.055 34.7953 178.178 34.8539C178.305 34.9125 178.462 34.9419 178.646 34.9419ZM185.647 35.7331C185.299 35.7982 184.958 35.8258 184.623 35.8161C184.291 35.8096 183.994 35.7493 183.73 35.6354C183.467 35.5182 183.267 35.3342 183.131 35.0835C183.01 34.8556 182.946 34.6228 182.94 34.3851C182.933 34.1475 182.931 33.8787 182.931 33.5792V28.9933H184.101V33.5109C184.101 33.7226 184.103 33.9081 184.106 34.0677C184.113 34.2272 184.147 34.3574 184.209 34.4584C184.326 34.6537 184.513 34.7628 184.77 34.7856C185.026 34.8084 185.318 34.7953 185.647 34.7465V35.7331ZM181.975 31.3815V30.4584H185.647V31.3815H181.975ZM188.908 35.8796C188.374 35.8796 187.906 35.764 187.504 35.5328C187.1 35.3017 186.785 34.981 186.558 34.5707C186.333 34.1604 186.22 33.6884 186.22 33.1544C186.22 32.5781 186.331 32.0782 186.552 31.655C186.773 31.2284 187.081 30.898 187.474 30.6636C187.867 30.4292 188.322 30.3119 188.84 30.3119C189.386 30.3119 189.85 30.4405 190.23 30.6978C190.614 30.9517 190.898 31.3115 191.084 31.7772C191.268 32.2427 191.338 32.7913 191.292 33.4229H190.127V32.9932C190.123 32.4202 190.023 32.0018 189.825 31.738C189.626 31.4743 189.314 31.3424 188.888 31.3424C188.407 31.3424 188.05 31.4922 187.815 31.7917C187.581 32.0881 187.465 32.5227 187.465 33.0958C187.465 33.6298 187.581 34.0432 187.815 34.3363C188.05 34.6293 188.391 34.7758 188.84 34.7758C189.129 34.7758 189.377 34.7123 189.586 34.5853C189.798 34.4551 189.96 34.2679 190.074 34.0238L191.234 34.3754C191.033 34.8507 190.72 35.2202 190.297 35.484C189.878 35.7478 189.415 35.8796 188.908 35.8796ZM187.094 33.4229V32.5342H190.718V33.4229H187.094ZM194.669 35.8796C194.125 35.8796 193.662 35.7591 193.278 35.5182C192.895 35.274 192.6 34.9419 192.395 34.5218C192.194 34.1018 192.092 33.6264 192.088 33.0958C192.092 32.5552 192.197 32.0767 192.406 31.6598C192.617 31.2399 192.916 30.911 193.302 30.6733C193.689 30.4324 194.15 30.3119 194.683 30.3119C195.281 30.3119 195.787 30.4634 196.2 30.7661C196.616 31.0656 196.888 31.476 197.015 31.9969L195.844 32.3143C195.752 32.0311 195.602 31.8113 195.39 31.655C195.179 31.4955 194.939 31.4157 194.669 31.4157C194.363 31.4157 194.111 31.489 193.912 31.6355C193.714 31.7787 193.567 31.9774 193.474 32.2313C193.379 32.4853 193.332 32.7734 193.332 33.0958C193.332 33.5972 193.444 34.0026 193.668 34.3118C193.893 34.6212 194.226 34.7758 194.669 34.7758C194.98 34.7758 195.225 34.7042 195.405 34.5609C195.587 34.4177 195.724 34.2109 195.815 33.9407L197.015 34.2093C196.851 34.7465 196.567 35.16 196.161 35.4498C195.755 35.7363 195.257 35.8796 194.669 35.8796ZM201.635 35.7331V33.1935C201.635 33.0274 201.624 32.8434 201.6 32.6415C201.578 32.4397 201.524 32.246 201.44 32.0604C201.359 31.8715 201.235 31.7169 201.07 31.5964C200.906 31.476 200.686 31.4157 200.405 31.4157C200.256 31.4157 200.108 31.4401 199.962 31.489C199.816 31.5378 199.683 31.6224 199.562 31.7429C199.445 31.8602 199.35 32.0229 199.279 32.2313C199.208 32.4365 199.171 32.7001 199.171 33.0225L198.475 32.7245C198.475 32.2752 198.56 31.8682 198.733 31.5036C198.908 31.1389 199.165 30.8492 199.504 30.6342C199.842 30.4161 200.257 30.3071 200.752 30.3071C201.142 30.3071 201.464 30.3722 201.717 30.5024C201.972 30.6327 202.173 30.7987 202.323 31.0005C202.472 31.2024 202.583 31.4174 202.654 31.6453C202.725 31.8732 202.771 32.0897 202.79 32.2948C202.814 32.4966 202.825 32.6611 202.825 32.7881V35.7331H201.635ZM197.981 35.7331V28.7003H199.03V32.4023H199.171V35.7331H197.981Z" fill="white"/>
            </g>
        </g>
        <path d="M151.393 36.8699V33.7383H149.161H148.714L148.268 34.633C148.119 34.7821 147.732 35.0804 147.375 35.0804H146.036H144.696H143.804H142.911H142.464L142.018 34.1856L141.571 33.7383H139.339V36.4225V37.3172L139.786 37.7646L140.679 38.212H147.375H149.161H150.054L150.946 37.7646L151.393 36.8699Z" fill="white" stroke="white"/>
    </g>
    <defs>
        <filter id="filter0_d_1399_39079" x="-4.83588" y="37.8958" width="292.81" height="95.1259" filterUnits="userSpaceOnUse" color-interpolation-filters="sRGB">
            <feFlood flood-opacity="0" result="BackgroundImageFix"/>
            <feColorMatrix in="SourceAlpha" type="matrix" values="0 0 0 0 0 0 0 0 0 0 0 0 0 0 0 0 0 0 127 0" result="hardAlpha"/>
            <feOffset dy="1.32594"/>
            <feGaussianBlur stdDeviation="12.7258"/>
            <feComposite in2="hardAlpha" operator="out"/>
            <feColorMatrix type="matrix" values="0 0 0 0 1 0 0 0 0 1 0 0 0 0 1 0 0 0 0.29 0"/>
            <feBlend mode="normal" in2="BackgroundImageFix" result="effect1_dropShadow_1399_39079"/>
            <feBlend mode="normal" in="SourceGraphic" in2="effect1_dropShadow_1399_39079" result="shape"/>
        </filter>
        <filter id="filter1_d_1399_39079" x="96.4358" y="0.672029" width="275.756" height="152.198" filterUnits="userSpaceOnUse" color-interpolation-filters="sRGB">
            <feFlood flood-opacity="0" result="BackgroundImageFix"/>
            <feColorMatrix in="SourceAlpha" type="matrix" values="0 0 0 0 0 0 0 0 0 0 0 0 0 0 0 0 0 0 127 0" result="hardAlpha"/>
            <feOffset dy="10.1303"/>
            <feGaussianBlur stdDeviation="5.21644"/>
            <feComposite in2="hardAlpha" operator="out"/>
            <feColorMatrix type="matrix" values="0 0 0 0 0 0 0 0 0 0 0 0 0 0 0 0 0 0 0.08 0"/>
            <feBlend mode="normal" in2="BackgroundImageFix" result="effect1_dropShadow_1399_39079"/>
            <feBlend mode="normal" in="SourceGraphic" in2="effect1_dropShadow_1399_39079" result="shape"/>
        </filter>
        <filter id="filter2_d_1399_39079" x="122.202" y="18.2373" width="95.8422" height="30.9979" filterUnits="userSpaceOnUse" color-interpolation-filters="sRGB">
            <feFlood flood-opacity="0" result="BackgroundImageFix"/>
            <feColorMatrix in="SourceAlpha" type="matrix" values="0 0 0 0 0 0 0 0 0 0 0 0 0 0 0 0 0 0 127 0" result="hardAlpha"/>
            <feOffset dy="1.2529"/>
            <feGaussianBlur stdDeviation="1.2529"/>
            <feComposite in2="hardAlpha" operator="out"/>
            <feColorMatrix type="matrix" values="0 0 0 0 0.403922 0 0 0 0 0.396078 0 0 0 0 0.45098 0 0 0 0.09 0"/>
            <feBlend mode="normal" in2="BackgroundImageFix" result="effect1_dropShadow_1399_39079"/>
            <feBlend mode="normal" in="SourceGraphic" in2="effect1_dropShadow_1399_39079" result="shape"/>
        </filter>
        <linearGradient id="paint0_linear_1399_39079" x1="141.57" y1="20.2539" x2="239.159" y2="248.667" gradientUnits="userSpaceOnUse">
            <stop stop-color="#F0F0FB"/>
            <stop offset="1" stop-color="#F0F0FB" stop-opacity="0"/>
        </linearGradient>
        <linearGradient id="paint1_linear_1399_39079" x1="141.57" y1="20.2549" x2="141.57" y2="202.899" gradientUnits="userSpaceOnUse">
            <stop stop-color="#DBE5FE"/>
            <stop offset="1" stop-color="#B1C5F9" stop-opacity="0"/>
        </linearGradient>
        <linearGradient id="paint2_linear_1399_39079" x1="234.313" y1="1.29945" x2="234.313" y2="131.982" gradientUnits="userSpaceOnUse">
            <stop stop-color="#EDEDED"/>
            <stop offset="1" stop-color="#EDEDED" stop-opacity="0"/>
        </linearGradient>
        <clipPath id="clip0_1399_39079">
            <rect width="375" height="204" fill="white" transform="translate(0.5)"/>
        </clipPath>
    </defs>
</svg>
